<?xml version="1.0" standalone="no"?>
<!DOCTYPE svg PUBLIC "-//W3C//DTD SVG 20010904//EN"
 "http://www.w3.org/TR/2001/REC-SVG-20010904/DTD/svg10.dtd">
<svg version="1.0" xmlns="http://www.w3.org/2000/svg"
 width="512.000000pt" height="512.000000pt" viewBox="0 0 512.000000 512.000000"
 preserveAspectRatio="xMidYMid meet">

<g transform="translate(0.000000,512.000000) scale(0.100000,-0.100000)"
fill="#000000" stroke="none">
<path d="M78 5100 c-23 -13 -46 -36 -58 -61 -20 -38 -21 -54 -18 -359 3 -304
4 -320 24 -346 42 -57 69 -69 165 -72 l89 -4 0 -1698 0 -1698 -89 -4 c-99 -3
-127 -16 -169 -78 -22 -32 -22 -38 -22 -347 0 -295 1 -316 20 -353 13 -26 34
-47 61 -60 38 -20 54 -21 359 -18 304 3 320 4 346 24 57 42 69 69 72 165 l4
89 1698 0 1698 0 4 -89 c3 -96 15 -123 72 -165 26 -20 42 -21 346 -24 305 -3
321 -2 359 18 27 13 48 34 61 61 20 38 21 54 18 359 -3 304 -4 320 -24 346
-42 57 -69 69 -165 72 l-89 4 0 1698 0 1698 89 4 c96 3 123 15 165 72 20 26
21 42 24 346 3 305 2 321 -18 359 -13 27 -34 48 -61 61 -38 20 -54 21 -359 18
-304 -3 -320 -4 -346 -24 -57 -42 -69 -69 -72 -165 l-4 -89 -1698 0 -1698 0
-4 89 c-3 96 -15 123 -72 165 -26 20 -42 21 -349 23 -305 2 -324 1 -359 -17z
m4184 -649 c2 -71 7 -95 24 -117 42 -57 69 -69 165 -72 l89 -4 0 -1698 0
-1698 -89 -4 c-71 -2 -95 -7 -117 -24 -57 -42 -69 -69 -72 -165 l-4 -89 -773
0 -773 0 -4 228 c-3 252 -8 274 -71 312 -51 31 -89 34 -141 12 -82 -37 -86
-51 -86 -319 l0 -233 -774 0 -774 0 -4 89 c-3 96 -15 123 -72 165 -22 17 -46
22 -117 24 l-89 4 0 774 0 774 228 0 c196 0 232 2 262 18 107 53 107 211 0
264 -30 16 -66 18 -262 18 l-228 0 0 774 0 774 89 4 c71 2 95 7 117 24 57 42
69 69 72 165 l4 89 1698 0 1698 0 4 -89z"/>
<path d="M2225 2976 c-69 -31 -95 -84 -95 -192 l0 -74 -227 0 c-197 0 -233 -2
-263 -18 -107 -53 -107 -211 0 -264 30 -16 66 -18 262 -18 l226 0 4 -89 c3
-96 15 -123 72 -165 22 -17 46 -22 117 -24 l89 -4 0 -243 0 -243 26 -32 c71
-83 192 -79 246 9 22 34 23 47 26 273 l4 236 88 4 c95 3 122 15 164 72 20 26
21 40 21 356 0 316 -1 330 -21 356 -11 15 -33 37 -48 48 -26 20 -42 21 -344
23 -249 2 -323 0 -347 -11z"/>
</g>
</svg>
