<?xml version="1.0" standalone="no"?>
<!DOCTYPE svg PUBLIC "-//W3C//DTD SVG 20010904//EN"
 "http://www.w3.org/TR/2001/REC-SVG-20010904/DTD/svg10.dtd">
<svg version="1.0" xmlns="http://www.w3.org/2000/svg"
 width="90.000000pt" height="90.000000pt" viewBox="0 0 90.000000 90.000000"
 preserveAspectRatio="xMidYMid meet">

<g transform="translate(0.000000,90.000000) scale(0.100000,-0.100000)"
fill="#000000" stroke="none">
<path d="M364 795 c-3 -8 -4 -20 -1 -27 2 -7 -58 -76 -134 -154 -101 -102
-139 -147 -139 -164 0 -35 325 -360 360 -360 17 0 62 38 162 137 108 108 144
137 165 138 63 1 42 31 -168 241 -114 114 -212 204 -222 204 -10 0 -20 -7 -23
-15z m181 -215 l130 -130 -263 0 -262 0 127 130 c69 72 129 130 132 130 3 0
65 -58 136 -130z"/>
<path d="M744 209 c-30 -59 -26 -94 11 -111 33 -15 72 3 81 35 6 26 -38 127
-56 127 -5 0 -21 -23 -36 -51z"/>
</g>
</svg>
