<?xml version="1.0" standalone="no"?>
<!DOCTYPE svg PUBLIC "-//W3C//DTD SVG 20010904//EN"
 "http://www.w3.org/TR/2001/REC-SVG-20010904/DTD/svg10.dtd">
<svg version="1.0" xmlns="http://www.w3.org/2000/svg"
 width="64.000000pt" height="64.000000pt" viewBox="0 0 64.000000 64.000000"
 preserveAspectRatio="xMidYMid meet">

<g transform="translate(0.000000,64.000000) scale(0.100000,-0.100000)"
fill="#000000" stroke="none">
<path d="M302 507 l-82 -82 98 -98 c53 -53 101 -97 106 -97 4 0 44 37 88 82
l79 81 -39 40 c-35 35 -42 38 -61 27 -21 -11 -22 -10 -11 10 10 18 9 25 -4 38
-13 13 -22 14 -45 6 -28 -11 -28 -11 -18 17 8 21 8 31 -2 43 -8 9 -16 16 -20
16 -4 0 -43 -37 -89 -83z"/>
<path d="M178 383 c-30 -35 -30 -44 -3 -79 14 -19 25 -41 23 -49 -2 -9 -34
-39 -73 -68 -77 -57 -92 -89 -56 -121 34 -31 62 -17 118 59 29 39 61 71 72 73
10 2 33 -9 50 -24 l33 -27 26 27 27 26 -101 101 c-94 94 -101 99 -116 82z
m-52 -264 c10 -17 -13 -36 -27 -22 -12 12 -4 33 11 33 5 0 12 -5 16 -11z"/>
</g>
</svg>
