<?xml version="1.0" standalone="no"?>
<!DOCTYPE svg PUBLIC "-//W3C//DTD SVG 20010904//EN"
 "http://www.w3.org/TR/2001/REC-SVG-20010904/DTD/svg10.dtd">
<svg version="1.0" xmlns="http://www.w3.org/2000/svg"
 width="512.000000pt" height="512.000000pt" viewBox="0 0 512.000000 512.000000"
 preserveAspectRatio="xMidYMid meet">

<g transform="translate(0.000000,512.000000) scale(0.100000,-0.100000)"
fill="#000000" stroke="none">
<path d="M2453 4465 c-109 -30 -185 -86 -253 -185 l-37 -55 -94 -23 c-52 -13
-150 -46 -218 -73 -572 -227 -1012 -731 -1155 -1324 -16 -67 -19 -72 -61 -94
-63 -33 -131 -110 -168 -189 -30 -63 -32 -74 -32 -177 0 -105 2 -114 34 -180
133 -270 485 -327 690 -110 159 168 159 423 0 586 -27 28 -49 54 -49 59 0 20
54 180 85 250 172 396 556 728 964 835 l56 14 50 -49 c89 -87 195 -126 323
-118 109 7 180 37 256 108 l62 59 59 -15 c403 -106 788 -440 960 -834 31 -70
85 -230 85 -250 0 -5 -22 -31 -49 -59 -165 -170 -159 -437 14 -600 213 -201
547 -140 676 124 32 67 34 75 34 180 0 103 -2 114 -32 177 -37 79 -105 156
-167 189 -43 23 -44 24 -69 119 -136 519 -482 957 -957 1212 -115 62 -294 132
-409 160 l-93 23 -38 55 c-110 162 -289 232 -467 185z"/>
<path d="M2486 3185 c-22 -8 -54 -29 -72 -47 -35 -35 -1102 -1946 -1124 -2012
-29 -89 17 -201 103 -245 92 -47 90 -48 655 178 l512 205 512 -205 c565 -226
563 -225 655 -178 85 44 132 156 103 244 -7 21 -255 475 -552 1009 -389 700
-550 981 -577 1008 -58 56 -136 71 -215 43z m367 -1164 c158 -285 287 -521
287 -524 0 -3 -118 42 -262 101 -226 90 -271 105 -318 105 -46 0 -97 -17 -315
-106 -143 -58 -262 -104 -264 -102 -4 5 572 1045 579 1045 3 0 134 -234 293
-519z"/>
</g>
</svg>
