<?xml version="1.0" standalone="no"?>
<!DOCTYPE svg PUBLIC "-//W3C//DTD SVG 20010904//EN"
 "http://www.w3.org/TR/2001/REC-SVG-20010904/DTD/svg10.dtd">
<svg version="1.0" xmlns="http://www.w3.org/2000/svg"
 width="512.000000pt" height="512.000000pt" viewBox="0 0 512.000000 512.000000"
 preserveAspectRatio="xMidYMid meet">

<g transform="translate(0.000000,512.000000) scale(0.100000,-0.100000)"
fill="#000000" stroke="none">
<path d="M125 4673 c-47 -24 -86 -64 -106 -108 -17 -36 -19 -70 -19 -382 l0
-343 215 0 215 0 0 215 0 215 210 0 210 0 0 210 0 210 -347 0 c-297 -1 -352
-3 -378 -17z"/>
<path d="M4270 4480 l0 -210 210 0 210 0 0 -215 0 -215 215 0 215 0 0 340 c0
371 -2 384 -58 443 -63 67 -65 67 -447 67 l-345 0 0 -210z"/>
<path d="M2385 3396 c-309 -73 -540 -282 -637 -576 -26 -81 -31 -114 -35 -225
-6 -148 6 -222 56 -350 41 -107 100 -195 190 -286 179 -178 378 -255 636 -246
113 3 143 8 225 36 139 47 230 102 330 201 178 175 260 367 260 610 0 121 -16
203 -59 315 -43 112 -101 196 -201 295 -100 99 -191 154 -330 201 -86 29 -109
33 -235 35 -96 3 -159 -1 -200 -10z"/>
<path d="M0 940 c0 -371 2 -384 58 -443 63 -67 65 -67 447 -67 l345 0 0 210 0
210 -210 0 -210 0 0 215 0 215 -215 0 -215 0 0 -340z"/>
<path d="M4690 1065 l0 -215 -210 0 -210 0 0 -210 0 -210 343 0 c377 0 389 2
449 66 56 60 58 73 58 444 l0 340 -215 0 -215 0 0 -215z"/>
</g>
</svg>
