<?xml version="1.0" standalone="no"?>
<!DOCTYPE svg PUBLIC "-//W3C//DTD SVG 20010904//EN"
 "http://www.w3.org/TR/2001/REC-SVG-20010904/DTD/svg10.dtd">
<svg version="1.0" xmlns="http://www.w3.org/2000/svg"
 width="512.000000pt" height="512.000000pt" viewBox="0 0 512.000000 512.000000"
 preserveAspectRatio="xMidYMid meet">

<g transform="translate(0.000000,512.000000) scale(0.100000,-0.100000)"
fill="#000000" stroke="none">
<path d="M1530 5113 c-90 -9 -262 -47 -357 -79 -471 -154 -864 -521 -1048
-979 -39 -98 -86 -267 -107 -385 -17 -98 -17 -412 0 -510 66 -377 229 -697
488 -954 l94 -94 0 -176 c0 -174 0 -177 25 -201 16 -17 35 -25 57 -25 69 1 88
38 88 173 l0 105 83 -49 c45 -27 121 -66 170 -86 l87 -37 0 -327 0 -326 26
-27 c41 -40 110 -30 133 21 7 16 11 123 11 315 l0 290 23 -5 c143 -35 211 -42
417 -42 236 1 320 13 519 77 362 115 702 379 908 706 69 110 134 245 170 355
l28 86 367 130 c202 72 371 131 377 131 7 0 11 -46 11 -134 0 -122 2 -136 23
-167 39 -58 81 -79 158 -79 l69 0 0 -50 c0 -44 -2 -50 -21 -50 -40 0 -134 -32
-214 -73 -58 -30 -101 -62 -155 -117 -124 -125 -181 -246 -200 -426 -7 -65
-10 -415 -8 -1004 l3 -905 27 -51 c15 -29 44 -66 65 -83 74 -61 81 -62 609
-59 445 3 482 4 514 22 49 26 98 74 123 121 l22 40 0 995 0 995 -28 80 c-43
121 -82 181 -176 275 -98 97 -186 148 -311 179 l-75 19 0 43 0 44 75 5 c90 7
128 29 159 93 20 41 21 59 21 373 0 368 -3 387 -71 435 -33 23 -40 24 -264 27
-227 3 -231 3 -265 -20 -65 -44 -80 -79 -80 -184 0 -52 -2 -94 -3 -94 -7 0
-700 250 -704 253 -2 3 -13 42 -24 88 -30 130 -67 234 -125 358 -250 529 -750
887 -1344 960 -79 10 -291 12 -370 4z m462 -192 c127 -26 285 -79 395 -134
298 -150 563 -418 703 -712 39 -81 115 -293 108 -300 -2 -2 -47 12 -102 31
-54 19 -107 34 -118 34 -29 0 -78 -53 -78 -85 0 -58 28 -71 530 -249 261 -93
478 -172 482 -175 4 -3 -212 -84 -480 -180 -501 -178 -532 -192 -532 -242 0
-28 26 -75 45 -83 29 -11 69 -6 124 14 29 12 57 20 62 18 16 -5 -105 -238
-173 -333 -78 -112 -246 -281 -355 -358 -155 -110 -340 -196 -523 -242 -151
-38 -258 -48 -435 -42 -228 8 -392 48 -602 147 -441 208 -757 623 -849 1115
-28 148 -26 422 5 565 44 209 121 393 237 568 77 115 290 329 404 404 204 135
424 220 658 253 127 19 364 12 494 -14z m2618 -1636 l0 -295 -170 0 -170 0 0
295 0 295 170 0 170 0 0 -295z m-6 -754 c73 -26 118 -53 180 -111 78 -73 130
-160 151 -257 l7 -33 -503 0 -502 0 6 39 c2 21 19 69 37 106 60 125 196 234
336 270 77 19 210 13 288 -14z m346 -1437 l0 -866 -30 -29 -29 -30 -461 3
-462 3 -19 24 c-18 22 -19 52 -19 892 l0 869 510 0 510 0 0 -866z"/>
<path d="M930 4341 c-199 -61 -301 -283 -215 -469 34 -73 95 -135 165 -166
l60 -27 0 -65 c0 -56 4 -68 25 -89 16 -17 35 -25 57 -25 60 1 88 40 88 124 l0
55 58 26 c74 34 144 108 172 182 21 57 28 152 14 208 -23 98 -113 198 -210
234 -56 22 -163 27 -214 12z m194 -195 c48 -36 66 -74 66 -139 0 -155 -194
-225 -295 -105 -54 64 -53 153 2 219 37 44 78 60 140 56 37 -3 61 -11 87 -31z"/>
<path d="M2288 4336 c-136 -49 -225 -159 -235 -291 -4 -51 -2 -64 17 -87 22
-28 65 -37 105 -22 21 8 45 56 45 91 0 15 10 46 23 68 25 44 87 85 130 85 35
0 83 24 91 45 3 9 6 32 6 50 0 66 -86 95 -182 61z"/>
<path d="M2747 4086 c-67 -18 -150 -91 -169 -147 -2 -5 -30 -14 -63 -19 -119
-19 -204 -81 -262 -192 -24 -47 -28 -64 -28 -144 0 -82 3 -96 31 -151 l32 -61
-32 -63 c-27 -56 -31 -73 -31 -149 0 -76 3 -92 33 -152 51 -104 143 -171 257
-186 50 -7 55 -10 87 -57 45 -67 112 -108 188 -113 53 -4 61 -2 84 21 48 48
22 128 -47 142 -17 4 -40 9 -50 11 -22 7 -47 55 -47 92 0 17 -9 40 -19 53 -18
22 -26 24 -118 24 -87 0 -102 3 -131 23 -40 29 -72 89 -72 137 0 51 21 94 69
140 59 56 57 91 -8 160 -72 76 -81 159 -26 231 42 54 77 68 164 61 103 -8 140
14 141 83 0 52 23 77 85 96 84 24 111 84 63 138 -29 32 -69 39 -131 22z"/>
<path d="M969 3301 c-27 -27 -29 -35 -29 -101 0 -66 2 -74 30 -102 26 -25 36
-29 63 -24 18 3 42 17 55 32 18 21 22 37 22 95 0 65 -2 73 -29 100 -18 17 -40
29 -56 29 -16 0 -38 -12 -56 -29z"/>
<path d="M631 3134 c-32 -27 -33 -30 -28 -83 3 -31 19 -96 35 -144 112 -323
366 -558 695 -642 264 -67 569 -60 802 17 102 34 239 102 273 135 47 47 12
143 -54 143 -15 0 -60 -18 -101 -41 -154 -85 -336 -129 -532 -129 -352 1 -615
107 -784 315 -64 79 -132 220 -158 325 -23 93 -39 116 -85 126 -24 5 -37 0
-63 -22z"/>
<path d="M4333 1776 c-96 -31 -178 -110 -214 -205 -28 -75 -24 -195 9 -262 36
-74 87 -125 160 -161 59 -29 76 -33 152 -33 73 0 93 4 142 28 34 17 77 50 107
83 153 168 98 436 -109 533 -66 30 -181 39 -247 17z m170 -170 c83 -34 125
-132 92 -214 -43 -106 -162 -143 -255 -79 -102 69 -89 236 22 290 40 20 98 22
141 3z"/>
<path d="M4315 928 c-52 -28 -62 -92 -20 -133 23 -24 30 -25 144 -25 l119 0
27 32 c32 38 29 81 -11 116 -23 20 -35 22 -132 22 -59 0 -116 -6 -127 -12z"/>
<path d="M4145 588 c-32 -17 -45 -39 -45 -79 0 -29 6 -42 26 -58 26 -20 38
-21 315 -21 274 0 290 1 309 20 43 43 34 110 -20 137 -33 17 -555 18 -585 1z"/>
<path d="M660 1533 c-58 -21 -77 -88 -39 -137 21 -26 65 -35 104 -20 25 10 47
62 40 95 -9 41 -68 75 -105 62z"/>
<path d="M1139 911 c-69 -70 2 -171 96 -135 19 8 45 55 45 84 0 31 -53 80 -85
80 -16 0 -38 -12 -56 -29z"/>
</g>
</svg>
