<?xml version="1.0" standalone="no"?>
<!DOCTYPE svg PUBLIC "-//W3C//DTD SVG 20010904//EN"
 "http://www.w3.org/TR/2001/REC-SVG-20010904/DTD/svg10.dtd">
<svg version="1.0" xmlns="http://www.w3.org/2000/svg"
 width="860.000000pt" height="1065.000000pt" viewBox="0 0 860.000000 1065.000000"
 preserveAspectRatio="xMidYMid meet">
<metadata>
Created by potrace 1.16, written by Peter Selinger 2001-2019
</metadata>
<g transform="translate(0.000000,1065.000000) scale(0.100000,-0.100000)"
fill="#000000" stroke="none">
<path d="M7655 10232 c-155 -95 -620 -802 -1172 -1782 -164 -289 -249 -468
-569 -1193 -249 -562 -994 -2287 -1008 -2334 -7 -21 -4 -23 29 -23 52 0 137
-33 206 -80 34 -23 62 -40 64 -38 17 19 1797 3109 1851 3213 382 739 757 1884
706 2159 -17 92 -48 114 -107 78z"/>
<path d="M3150 7545 c-724 -91 -1374 -402 -1870 -895 -276 -275 -484 -574
-645 -930 -148 -328 -260 -729 -312 -1115 -27 -204 -24 -643 6 -835 56 -363
141 -633 297 -940 347 -684 945 -1246 1739 -1635 504 -247 989 -389 1575 -462
205 -25 755 -25 990 0 1102 120 2011 499 2624 1096 667 650 891 1477 651 2405
-207 803 -588 1308 -1145 1521 -219 83 -443 117 -750 113 l-205 -3 -372 -644
-373 -644 24 -71 c106 -310 10 -691 -243 -959 -207 -219 -563 -388 -951 -452
-81 -13 -611 -57 -617 -51 -1 1 79 126 177 276 99 151 190 300 202 330 21 51
22 69 19 256 -1 111 3 247 9 304 26 239 99 422 217 550 112 121 215 176 387
209 l89 16 158 370 c88 203 159 370 159 371 0 1 -62 4 -137 7 -76 3 -162 12
-191 21 -159 44 -284 167 -299 294 -9 82 13 152 113 350 124 246 148 320 142
451 -3 92 -6 104 -46 185 -66 133 -213 272 -414 393 -78 47 -188 85 -313 108
-125 24 -536 29 -695 10z m48 -1050 c230 -54 366 -239 332 -452 -48 -299 -383
-553 -733 -553 -170 0 -297 48 -387 147 -170 186 -111 482 138 689 82 68 220
137 327 163 97 24 236 26 323 6z m4017 -2398 c110 -56 170 -153 170 -277 0
-124 -62 -222 -173 -277 -48 -24 -69 -28 -137 -27 -98 0 -160 28 -227 102
-146 163 -74 430 135 498 64 21 171 13 232 -19z m-652 -1015 c278 -130 334
-486 111 -692 -159 -147 -408 -142 -569 11 -205 194 -157 534 94 668 79 42
121 51 218 47 66 -3 95 -10 146 -34z m-3917 1 c70 -24 155 -110 179 -183 24
-72 23 -165 -4 -224 -11 -25 -40 -68 -66 -95 -150 -160 -409 -114 -503 89 -36
78 -36 177 2 254 32 65 109 138 169 159 57 21 162 21 223 0z m1124 -471 c163
-80 249 -227 237 -409 -4 -68 -11 -97 -37 -149 -124 -252 -450 -316 -657 -130
-176 160 -185 430 -19 600 91 93 178 127 316 123 83 -3 103 -7 160 -35z m1462
1 c274 -129 325 -501 96 -697 -208 -178 -534 -107 -651 141 -39 85 -49 207
-23 296 24 83 90 173 164 224 87 59 137 73 252 70 83 -2 104 -7 162 -34z"/>
<path d="M4645 4740 c-224 -31 -356 -172 -416 -445 -6 -27 -14 -185 -18 -350
-7 -294 -8 -301 -34 -369 -23 -59 -74 -151 -133 -242 l-17 -25 44 6 c519 73
887 285 1039 599 127 262 98 541 -73 716 -95 96 -226 133 -392 110z"/>
</g>
</svg>
