<?xml version="1.0" standalone="no"?>
<!DOCTYPE svg PUBLIC "-//W3C//DTD SVG 20010904//EN"
 "http://www.w3.org/TR/2001/REC-SVG-20010904/DTD/svg10.dtd">
<svg version="1.0" xmlns="http://www.w3.org/2000/svg"
 width="302.000000pt" height="341.000000pt" viewBox="0 0 302.000000 341.000000"
 preserveAspectRatio="xMidYMid meet">

<g transform="translate(0.000000,341.000000) scale(0.100000,-0.100000)"
fill="#000000" stroke="none">
<path d="M2272 3306 c-131 -25 -289 -116 -365 -209 -50 -62 -111 -155 -142
-217 -40 -80 -44 -84 -67 -63 -19 17 -21 17 -105 -14 -9 -4 -13 6 -13 31 0 49
-20 55 -70 22 -22 -14 -43 -26 -47 -26 -5 0 -15 15 -23 33 -16 33 -31 37 -92
22 -20 -5 -73 12 -225 76 -263 109 -306 123 -351 108 -20 -7 -83 -58 -157
-129 -108 -102 -139 -125 -235 -175 -65 -34 -119 -69 -130 -85 -28 -39 -102
-234 -139 -365 -46 -166 -71 -344 -80 -580 -10 -230 -7 -274 38 -575 32 -217
37 -242 76 -385 14 -49 27 -106 29 -125 6 -57 111 -288 174 -380 60 -89 161
-200 182 -200 7 0 -12 26 -42 58 -64 67 -82 99 -142 254 -47 123 -65 188 -43
154 46 -72 161 -217 189 -238 35 -26 92 -58 105 -58 4 0 -16 24 -43 53 -28 28
-65 72 -81 97 -36 54 -96 170 -90 176 2 2 18 -16 35 -40 59 -82 182 -231 243
-292 59 -60 131 -107 189 -124 44 -13 36 4 -12 26 -102 46 -273 259 -352 439
-47 108 -96 245 -88 245 4 0 25 -33 47 -73 29 -52 71 -103 155 -187 63 -63
157 -163 208 -223 98 -112 154 -158 223 -182 49 -18 49 -18 49 -7 0 5 -17 17
-39 26 -79 36 -180 163 -265 334 -39 78 -47 101 -44 140 l3 46 66 -93 c72
-101 211 -272 217 -266 2 2 -32 59 -75 127 -96 150 -95 148 -89 148 2 0 46
-52 96 -115 85 -106 188 -210 198 -200 3 2 -16 27 -41 55 -48 53 -116 146
-157 215 l-25 40 30 -23 c79 -61 221 -149 317 -198 145 -73 151 -68 9 6 -128
68 -268 161 -343 229 -42 37 -62 69 -109 166 -32 66 -76 174 -99 240 -39 114
-90 303 -90 335 0 8 43 -64 95 -160 53 -96 100 -179 105 -184 18 -18 11 22
-26 159 -20 74 -34 141 -31 149 13 32 34 15 51 -41 27 -87 80 -193 121 -241
20 -23 31 -42 25 -42 -6 0 -8 -5 -4 -11 10 -17 167 -4 242 20 35 12 77 21 93
21 19 0 29 5 29 15 0 9 13 41 29 73 15 31 45 101 66 155 27 71 40 95 47 85 6
-8 8 2 4 32 l-6 45 21 -35 20 -35 -6 40 c-14 85 -28 103 -112 142 -42 19 -94
38 -115 41 -29 3 -38 9 -36 21 3 12 15 16 53 15 l50 -1 -48 10 -49 11 7 45
c14 100 11 99 72 31 30 -33 82 -81 115 -106 64 -49 70 -65 16 -40 -18 9 -24
11 -14 4 52 -35 67 -59 107 -168 71 -197 108 -249 83 -117 -15 76 -33 194 -34
215 0 6 7 12 15 12 26 0 75 -29 75 -44 0 -8 9 -24 20 -37 l20 -24 -6 39 c-6
34 -5 38 12 33 11 -3 34 -9 53 -12 50 -10 30 10 -23 24 -25 6 -47 15 -50 20
-11 17 28 212 71 356 25 82 51 177 59 210 13 56 14 47 9 -137 -3 -108 -1 -199
4 -202 5 -3 14 16 21 42 19 69 26 70 33 2 4 -33 18 -81 31 -108 25 -48 81
-110 92 -100 3 3 -6 29 -20 57 -27 52 -33 91 -16 91 6 0 14 -10 19 -22 5 -13
18 -46 29 -75 l21 -51 -55 -33 c-51 -31 -67 -49 -44 -49 6 0 10 4 10 10 0 5
21 21 46 36 35 21 48 24 57 15 9 -9 -1 -23 -43 -59 -92 -79 -128 -115 -102
-102 28 14 39 8 17 -10 -18 -15 -20 -35 -3 -24 8 5 9 2 3 -12 -4 -10 -10 -78
-13 -150 -4 -126 -3 -132 18 -152 13 -12 43 -28 68 -37 51 -17 157 -21 147 -5
-3 5 11 31 33 58 21 27 57 86 81 131 23 44 44 81 47 81 3 0 11 -15 19 -34 14
-32 12 -44 -34 -203 -75 -257 -99 -308 -190 -407 -25 -27 -39 -46 -31 -41 8 5
53 33 98 63 46 29 86 51 90 48 3 -3 0 -18 -7 -32 -23 -52 -2 -34 46 37 30 46
57 75 71 79 12 3 39 25 58 50 38 49 67 69 99 70 31 0 82 36 100 69 8 17 18 51
22 76 4 32 18 61 49 100 67 87 64 47 -9 -99 -65 -130 -110 -188 -197 -249 -50
-35 41 13 102 54 45 31 68 58 121 142 150 238 194 373 218 669 19 237 -11 544
-80 819 -71 281 -122 379 -217 415 -97 37 -339 -4 -584 -98 -151 -58 -140 -58
-184 6 -39 57 -52 64 -88 45 -41 -22 -25 0 65 89 117 117 190 172 302 227 150
75 216 88 452 89 111 1 199 4 195 7 -4 3 -54 14 -112 23 -144 24 -356 29 -448
12z m278 -16 c-25 -5 -81 -14 -125 -20 -117 -18 -302 -73 -397 -120 l-83 -41
50 46 c60 55 168 110 256 129 38 8 121 14 204 14 101 0 127 -3 95 -8z m-1900
-506 c-106 -323 -114 -371 -114 -664 0 -245 10 -374 43 -570 10 -58 17 -107
15 -109 -4 -4 -17 26 -48 112 -10 27 -20 47 -22 45 -5 -5 60 -249 84 -318 42
-118 176 -441 227 -545 29 -60 52 -111 50 -113 -11 -12 -158 246 -188 330 -2
7 -7 10 -11 6 -7 -6 81 -224 126 -312 34 -66 1 -29 -58 67 -69 110 -118 214
-210 442 -38 94 -70 163 -71 155 -2 -8 12 -96 31 -195 18 -99 32 -182 30 -184
-12 -13 -82 221 -113 374 -27 137 -40 262 -51 518 -6 146 -6 234 1 265 5 26 8
103 7 172 l-3 125 -22 -85 c-49 -188 -95 -355 -99 -359 -2 -2 -6 -2 -8 0 -10
10 14 460 28 524 24 108 88 229 159 298 32 32 61 56 64 53 3 -2 -3 -30 -12
-61 -19 -67 -14 -82 10 -31 19 40 41 49 31 14 -47 -177 -67 -262 -71 -308 -5
-45 6 -22 58 135 35 105 79 219 97 255 40 80 101 182 106 178 2 -2 -28 -98
-66 -214z m1965 108 c-6 -5 -68 -19 -139 -32 -71 -12 -203 -41 -292 -65 -90
-23 -161 -38 -159 -34 9 13 166 69 265 95 129 33 349 57 325 36z m-1181 -44
c6 -18 5 -36 -5 -60 -21 -52 -201 -316 -353 -518 -201 -268 -219 -279 -46 -30
47 69 90 132 94 140 16 31 -77 -79 -161 -192 -49 -64 -90 -115 -92 -112 -10 9
175 357 231 436 66 90 212 278 262 336 33 38 57 38 70 0z m1308 -5 c72 -76
182 -476 208 -758 5 -60 10 -135 10 -165 -1 -93 -17 -35 -28 100 -19 232 -108
581 -200 783 -33 72 -31 83 10 40z m-1180 -33 c-2 -24 -11 -58 -21 -74 -10
-17 -37 -114 -61 -216 -47 -208 -49 -214 -54 -209 -3 2 4 51 15 109 10 58 18
108 17 111 -2 4 -32 -44 -68 -107 -36 -63 -68 -114 -71 -114 -4 0 22 69 58
153 36 83 76 183 90 221 22 62 23 70 9 78 -24 13 -20 27 20 65 49 46 70 41 66
-17z m315 18 c39 -44 101 -144 156 -255 86 -170 135 -325 222 -691 5 -21 3
-23 -26 -20 -32 3 -33 4 -82 151 -27 81 -52 147 -55 147 -4 0 -6 -70 -4 -156
3 -171 0 -193 -23 -174 -19 16 -31 82 -56 320 -23 225 -27 236 -108 350 -48
68 -154 261 -146 268 2 2 51 -43 109 -99 59 -57 106 -103 106 -101 0 9 -100
134 -147 183 l-54 57 33 21 c42 26 50 26 75 -1z m-173 -41 c60 -79 110 -233
121 -379 9 -106 -6 -233 -56 -472 -37 -181 -58 -251 -46 -156 3 25 9 99 12
165 l5 120 -20 -55 c-11 -30 -23 -62 -26 -70 -12 -32 -26 21 -20 78 25 270 29
384 17 492 -10 94 -36 202 -65 271 -5 10 1 19 16 27 33 16 35 15 62 -21z
m-605 -147 c-57 -61 -128 -139 -156 -173 -62 -73 -131 -208 -168 -327 -29 -94
-65 -289 -65 -353 0 -24 -7 -48 -17 -59 -15 -17 -15 -18 0 -18 10 0 17 -2 17
-5 0 -3 9 -84 20 -182 19 -164 19 -178 4 -201 l-17 -25 -13 26 c-19 36 -61
204 -80 322 -10 60 -16 150 -15 225 1 112 0 122 -13 101 -13 -24 -14 -24 -20
-4 -9 28 0 49 88 196 97 163 163 251 288 382 91 95 220 205 242 205 4 0 -38
-50 -95 -110z m537 -8 c8 -25 14 -77 14 -116 0 -84 -23 -282 -44 -381 -8 -38
-18 -94 -22 -124 -4 -35 -15 -62 -30 -78 -13 -14 -24 -32 -24 -39 0 -19 -29
-18 -37 1 -10 28 18 348 37 415 10 36 26 128 34 205 9 77 19 155 22 174 5 33
5 33 21 11 9 -12 22 -43 29 -68z m473 -27 c226 -140 430 -350 581 -600 49 -82
160 -305 160 -322 0 -4 -28 39 -61 97 -34 58 -85 130 -114 160 -28 30 -78 93
-110 140 -32 47 -89 123 -126 170 -72 89 -301 313 -378 368 -65 47 -36 39 48
-13z m-1878 -91 c-13 -61 -25 -182 -33 -316 -10 -187 -9 -248 5 -450 11 -138
19 -386 21 -608 3 -362 4 -379 29 -499 15 -68 27 -127 27 -130 -1 -18 -32 53
-50 114 -12 39 -32 93 -45 120 -27 56 -86 331 -111 518 -23 164 -23 514 0 695
19 158 47 302 82 427 27 95 83 239 91 232 2 -3 -5 -49 -16 -103z m807 4 c-58
-89 -106 -200 -167 -387 -39 -118 -71 -221 -71 -228 0 -11 4 -11 21 -2 20 10
21 9 14 -12 -4 -13 -9 -39 -12 -56 -8 -48 22 -44 38 5 16 49 109 235 115 229
4 -3 -49 -154 -75 -212 -5 -11 -12 -27 -14 -36 -6 -19 -93 -56 -105 -45 -3 4
-7 71 -7 149 1 135 2 147 34 239 39 114 97 216 176 311 56 67 81 87 53 45z
m1212 -145 c157 -152 295 -314 335 -393 23 -46 95 -256 94 -275 0 -5 -10 17
-23 51 -67 181 -193 361 -403 576 -95 97 -173 179 -173 182 0 19 34 -9 170
-141z m-995 76 c-67 -131 -130 -332 -155 -494 -12 -76 -19 -87 -67 -103 -29
-10 -33 -9 -33 6 0 34 31 190 58 290 26 98 31 109 122 232 52 71 96 127 98
126 2 -2 -9 -28 -23 -57z m656 -21 c39 -76 59 -207 59 -390 0 -101 -4 -169
-10 -173 -5 -3 -10 -2 -10 3 0 48 -43 458 -55 519 -17 90 -16 83 -10 83 2 0
14 -19 26 -42z m574 -27 c44 -21 91 -48 105 -59 19 -17 8 -14 -50 12 -42 19
-87 37 -101 41 -14 3 -38 17 -55 31 -28 25 -29 25 -4 19 14 -4 61 -24 105 -44z
m-266 -86 c190 -226 320 -481 396 -779 34 -134 70 -337 63 -358 -2 -6 -26 65
-52 158 -26 93 -66 209 -88 257 -26 58 -38 96 -34 111 4 16 -1 29 -18 45 -13
12 -36 53 -51 92 -32 83 -44 87 -16 6 11 -32 17 -57 13 -57 -4 0 -22 26 -41
58 -137 234 -180 310 -186 332 -12 40 9 13 55 -73 23 -43 44 -76 47 -74 2 3
-37 84 -86 181 -121 235 -121 242 -2 101z m-749 -26 c-5 -46 -10 -153 -10
-238 l0 -153 -37 7 c-21 4 -40 8 -42 11 -6 5 36 235 65 357 14 60 28 107 30
105 2 -3 -1 -42 -6 -89z m1115 17 c74 -39 180 -143 239 -233 38 -59 80 -143
72 -143 -1 0 -32 40 -68 88 -82 109 -176 198 -267 252 -38 22 -77 50 -87 62
-19 20 -19 20 16 13 19 -4 62 -21 95 -39z m-1320 -181 c0 -122 -3 -184 -9
-167 -11 36 -13 233 -3 305 5 31 9 57 10 57 1 0 2 -88 2 -195z m-94 -62 c-6
-48 -11 -107 -11 -130 0 -33 -4 -43 -21 -48 -11 -4 -22 -5 -25 -3 -2 3 10 66
28 141 17 75 33 135 36 133 2 -3 -1 -44 -7 -93z m184 -57 c-7 -85 -10 -96 -26
-96 -11 0 -19 3 -19 8 -1 17 44 191 48 187 2 -2 1 -47 -3 -99z m649 -244 c-10
-25 -21 27 -23 108 -2 117 13 124 22 12 5 -57 5 -111 1 -120z m133 91 c-25
-33 -35 6 -20 78 l7 34 12 -50 c7 -33 8 -54 1 -62z m-793 -2 c3 -5 25 -7 48
-4 24 2 49 0 56 -5 12 -8 46 -191 37 -200 -9 -10 -115 109 -139 156 -14 28
-26 54 -26 57 0 8 18 6 24 -4z m-110 -98 c-3 -54 -9 -101 -13 -104 -3 -4 -37
-10 -75 -14 l-68 -7 6 39 c3 21 8 64 12 96 4 41 12 60 25 67 31 17 36 11 43
-50 8 -68 21 -71 31 -7 10 64 15 77 31 77 13 0 14 -15 8 -97z m86 57 c11 -22
18 -40 16 -40 -5 0 -46 65 -46 74 0 15 11 3 30 -34z m-244 -27 c-3 -21 -6 -60
-6 -88 0 -63 -6 -70 -54 -79 l-39 -7 7 87 c7 96 14 111 54 117 15 2 31 5 36 6
5 0 6 -16 2 -36z m442 -24 c2 -62 -12 -49 -21 19 -4 30 -2 42 6 39 7 -2 13
-28 15 -58z m1437 -82 c-4 -56 -11 -110 -14 -121 -7 -16 -9 -15 -19 10 -15 37
-17 71 -8 159 10 97 13 103 32 76 13 -19 15 -40 9 -124z m-2670 -462 c36 -320
130 -600 271 -810 95 -141 90 -132 72 -115 -71 66 -166 197 -214 295 -145 296
-188 558 -168 1020 l9 200 6 -220 c3 -121 14 -287 24 -370z m1889 495 c4 -36
10 -75 13 -87 5 -21 1 -23 -30 -23 -33 0 -37 3 -42 33 -3 17 -6 56 -8 86 -2
50 0 56 23 68 31 16 35 9 44 -77z m100 44 c11 -82 7 -93 -16 -49 -11 22 -27
44 -34 48 -8 4 -14 17 -14 27 0 15 7 20 29 20 26 0 29 -3 35 -46z m50 -75 c14
-64 25 -124 25 -135 0 -10 3 -35 7 -54 l6 -35 -26 40 c-20 33 -22 41 -10 43
14 3 14 6 0 21 -9 10 -19 52 -26 106 -19 174 -12 179 24 14z m-1407 -36 c-5
-120 -9 -139 -27 -157 -20 -20 -20 -20 -20 -1 1 80 35 295 47 295 3 0 3 -62 0
-137z m1471 50 c22 -49 48 -124 57 -168 21 -100 34 -425 16 -425 -6 0 -11 8
-11 18 0 9 -5 71 -11 137 -14 162 -42 297 -105 508 -3 9 -1 17 4 17 5 0 27
-39 50 -87z m-1522 40 c-4 -16 -10 -88 -13 -160 -3 -73 -9 -133 -12 -133 -6 0
-57 280 -53 290 2 5 61 28 76 29 4 1 5 -11 2 -26z m804 -108 c0 -47 -4 -85 -8
-85 -5 0 -16 6 -27 14 -15 11 -17 21 -12 58 17 121 47 130 47 13z m-896 -113
c20 -87 23 -118 15 -134 -18 -33 -26 -9 -38 117 -7 66 -14 131 -17 145 -12 66
16 -24 40 -128z m446 104 c0 -20 -6 -23 -78 -31 -59 -7 -64 -6 -60 11 5 30
138 49 138 20z m-160 -25 c0 -23 -4 -26 -48 -36 -31 -6 -33 -5 -30 16 2 15 12
26 28 30 42 12 50 10 50 -10z m1125 -10 c6 -10 -25 -31 -44 -31 -6 0 -11 9
-11 20 0 15 7 20 24 20 14 0 27 -4 31 -9z m-972 -63 c33 -17 46 -39 47 -75 1
-94 -129 -102 -176 -12 -22 44 -7 74 43 87 52 14 61 14 86 0z m1671 -68 c-25
-69 -29 -55 -8 22 10 34 20 55 22 45 2 -10 -4 -40 -14 -67z m-1512 28 c45 -28
71 -51 75 -67 11 -42 -64 -259 -105 -304 -18 -20 -53 -40 -88 -51 -19 -6 -18
-1 12 61 55 114 62 212 28 376 -4 15 -3 27 1 27 4 0 39 -19 77 -42z m1327 -27
c-12 -28 -25 -51 -30 -51 -5 0 3 25 18 55 33 68 42 65 12 -4z m-475 18 c52
-41 16 -129 -54 -129 -78 0 -98 104 -26 136 42 18 49 17 80 -7z m702 -29 c-13
-99 -114 -365 -116 -304 0 33 35 161 67 244 17 41 33 83 36 93 12 34 19 16 13
-33z m-609 -115 c-5 -66 -24 -111 -94 -216 -34 -51 -52 -69 -75 -74 -41 -10
-44 -1 -9 25 63 44 109 155 131 315 l13 90 19 -40 c14 -30 18 -56 15 -100z
m-1404 27 c-6 -53 11 -148 35 -199 29 -62 45 -32 36 66 -7 72 4 76 21 8 9 -38
13 -42 39 -40 27 2 28 1 23 -34 -8 -47 6 -63 52 -63 47 0 72 26 97 98 10 28
22 52 26 52 23 0 -10 -117 -44 -156 -24 -28 -37 -34 -68 -34 -21 0 -51 5 -65
10 -33 12 -51 4 -34 -16 23 -28 -40 -16 -66 12 -72 78 -106 225 -70 305 10 21
19 39 21 39 2 0 1 -22 -3 -48z m-552 -272 c38 -134 130 -322 209 -429 34 -46
60 -85 57 -87 -7 -8 -113 128 -162 209 -86 142 -149 326 -159 472 l-5 70 15
-65 c8 -36 29 -112 45 -170z m418 138 c12 -46 21 -87 20 -93 0 -5 -18 26 -40
69 -29 60 -36 83 -28 93 6 7 15 13 19 13 4 0 17 -37 29 -82z m1808 15 c-4 -17
-4 -17 -12 0 -4 9 -4 25 0 35 8 16 8 16 12 0 3 -10 3 -26 0 -35z m-557 -48 c5
-11 10 -31 12 -45 3 -21 8 -25 36 -23 40 1 64 22 88 71 24 52 30 23 6 -32 -25
-55 -60 -80 -104 -73 -113 20 -109 14 -76 121 21 66 23 68 26 36 1 -19 7 -44
12 -55z m480 -43 c0 -21 -7 -47 -16 -58 -14 -18 -15 -16 -10 29 9 74 26 93 26
29z m-136 -159 c-8 -64 -49 -148 -84 -173 l-29 -21 34 102 c46 136 91 188 79
92z m-1781 -96 c39 -124 112 -305 147 -364 11 -18 16 -33 11 -33 -19 0 -52 52
-86 138 -41 104 -126 382 -116 382 3 0 23 -55 44 -123z m326 -317 c11 -24 11
-24 -3 -6 -9 11 -16 24 -16 30 0 12 5 7 19 -24z m-88 -196 c28 -42 49 -77 47
-79 -4 -4 -118 141 -118 150 0 21 27 -6 71 -71z"/>
<path d="M1375 1610 c27 -12 43 -12 25 0 -8 5 -22 9 -30 9 -10 0 -8 -3 5 -9z"/>
<path d="M1570 694 c-26 -67 7 -161 65 -188 30 -15 38 -15 68 -2 47 19 104
103 131 194 l7 22 -131 0 -130 0 -10 -26z m152 -34 c24 0 48 -28 48 -57 0 -36
-60 -93 -98 -93 -41 0 -84 38 -84 74 0 59 38 90 97 80 11 -2 28 -4 37 -4z"/>
</g>
</svg>
