<?xml version="1.0" standalone="no"?>
<!DOCTYPE svg PUBLIC "-//W3C//DTD SVG 20010904//EN"
 "http://www.w3.org/TR/2001/REC-SVG-20010904/DTD/svg10.dtd">
<svg version="1.0" xmlns="http://www.w3.org/2000/svg"
 width="512.000000pt" height="512.000000pt" viewBox="0 0 512.000000 512.000000"
 preserveAspectRatio="xMidYMid meet">

<g transform="translate(0.000000,512.000000) scale(0.100000,-0.100000)"
fill="#000000" stroke="none">
<path d="M0 2560 l0 -2560 2560 0 2560 0 0 2560 0 2560 -2560 0 -2560 0 0
-2560z m4820 0 l0 -2260 -2260 0 -2260 0 0 2260 0 2260 2260 0 2260 0 0 -2260z"/>
<path d="M1386 2463 c-176 -461 -321 -844 -324 -850 -3 -10 34 -13 166 -13
l169 0 48 133 c27 72 61 167 78 210 l29 77 300 -2 300 -3 77 -207 76 -208 169
0 168 0 -6 23 c-3 12 -147 393 -320 847 l-313 825 -149 3 -149 2 -319 -837z
m588 118 l113 -321 -240 0 c-224 0 -239 1 -232 18 3 9 56 152 116 317 132 361
120 333 126 318 2 -6 55 -156 117 -332z"/>
<path d="M3480 2870 c-153 -24 -287 -103 -368 -215 l-21 -30 -1 118 0 117
-145 0 -145 0 0 -630 0 -630 160 0 160 0 0 363 0 362 25 53 c50 107 161 197
263 213 98 14 170 -23 211 -110 l26 -56 3 -412 3 -413 160 0 160 0 -3 478 c-4
428 -6 483 -22 532 -42 127 -95 193 -187 235 -69 31 -180 41 -279 25z"/>
</g>
</svg>
