<?xml version="1.0" standalone="no"?>
<!DOCTYPE svg PUBLIC "-//W3C//DTD SVG 20010904//EN"
 "http://www.w3.org/TR/2001/REC-SVG-20010904/DTD/svg10.dtd">
<svg version="1.0" xmlns="http://www.w3.org/2000/svg"
 width="1280.000000pt" height="1232.000000pt" viewBox="0 0 1280.000000 1232.000000"
 preserveAspectRatio="xMidYMid meet">
<metadata>
Created by potrace 1.15, written by Peter Selinger 2001-2017
</metadata>
<g transform="translate(0.000000,1232.000000) scale(0.100000,-0.100000)"
fill="#000000" stroke="none">
<path d="M7356 12280 l-69 -38 34 -6 c19 -3 62 -7 96 -10 254 -22 623 -151
965 -337 345 -188 629 -380 1305 -881 199 -148 385 -279 415 -293 107 -49 220
-52 329 -9 46 19 159 85 158 94 0 7 -129 108 -304 241 -441 333 -829 575
-1270 790 -412 201 -782 333 -1176 419 -127 28 -379 71 -404 69 -5 0 -41 -18
-79 -39z"/>
<path d="M4478 12155 c-608 -248 -1163 -579 -1648 -983 -168 -140 -500 -476
-622 -630 -112 -140 -240 -326 -284 -410 -32 -61 -27 -100 18 -137 58 -49 87
-37 363 147 87 58 118 84 146 128 168 253 211 317 277 405 490 651 1153 1168
1849 1441 68 27 125 54 127 61 7 18 -21 43 -47 43 -12 -1 -93 -29 -179 -65z"/>
<path d="M4092 11050 c-192 -27 -434 -129 -660 -277 -98 -65 -290 -219 -402
-322 l-74 -69 39 -16 38 -16 -114 -118 c-329 -336 -557 -641 -761 -1017 -273
-502 -453 -1107 -513 -1727 -9 -90 -19 -174 -23 -186 -6 -19 -82 -62 -387
-217 -209 -107 -388 -204 -397 -216 -36 -44 -9 -87 59 -96 33 -4 80 15 377
156 187 89 342 161 346 161 3 0 14 -66 24 -147 72 -602 228 -1066 491 -1463
242 -364 515 -597 823 -701 266 -90 594 -77 926 37 632 218 1087 738 1417
1619 104 277 219 690 281 1008 17 88 26 117 38 117 8 0 64 -14 124 -30 61 -16
112 -27 115 -25 9 10 -18 127 -42 178 -29 62 -85 132 -148 183 l-46 37 -6 331
c-7 415 -34 647 -113 968 -110 450 -321 906 -537 1160 -114 134 -313 261 -472
302 -95 25 -270 40 -360 31 l-80 -8 105 -23 c262 -59 454 -152 612 -294 118
-105 272 -320 367 -508 211 -421 310 -987 281 -1622 -5 -113 -10 -218 -10
-235 -1 -53 -7 -56 -100 -39 -144 25 -368 53 -535 65 -199 14 -677 6 -867 -15
-658 -74 -1287 -258 -1906 -557 l-164 -79 7 63 c3 34 20 156 36 271 179 1265
621 2151 1342 2689 146 109 304 192 482 254 254 88 596 97 862 23 37 -10 69
-17 71 -15 6 5 -126 77 -207 111 -113 49 -184 65 -311 71 -187 9 -355 -36
-590 -159 -63 -33 -113 -58 -110 -55 17 17 142 105 212 148 258 162 474 210
661 146 244 -84 559 -301 846 -584 103 -102 104 -103 153 -103 72 0 185 28
215 54 36 31 26 51 -60 128 -486 437 -1004 677 -1355 628z m467 -3371 c16 -45
16 -46 -34 -52 -63 -9 -121 -41 -148 -82 -12 -19 -24 -35 -27 -35 -3 0 -20 43
-37 94 l-31 95 42 4 c22 2 82 4 133 5 l91 2 11 -31z m-462 -41 c24 -47 28 -64
28 -143 0 -78 -4 -97 -27 -141 -15 -28 -48 -70 -73 -92 -83 -73 -179 -89 -313
-52 -196 55 -332 179 -332 304 0 42 27 95 52 105 47 18 452 67 570 70 l68 1
27 -52z m1226 -7 c23 -1 40 -7 43 -15 7 -19 -37 -241 -93 -461 -151 -597 -401
-1132 -710 -1515 -243 -302 -546 -510 -823 -566 -121 -24 -364 -15 -510 19
-611 145 -1040 612 -1274 1388 -57 190 -133 603 -124 675 3 24 22 33 303 135
165 60 300 109 301 109 1 0 4 -89 7 -197 3 -109 13 -241 21 -293 92 -572 363
-890 848 -997 67 -14 126 -18 308 -18 244 1 334 12 491 61 565 176 801 707
703 1574 -7 69 -14 132 -14 140 0 14 30 12 243 -12 133 -15 259 -27 280 -27z"/>
<path d="M8270 11013 c-155 -11 -352 -54 -535 -115 -209 -70 -604 -256 -590
-278 19 -31 197 -111 310 -140 l70 -18 110 55 c100 51 324 133 361 133 8 0
-16 -26 -53 -59 -38 -32 -122 -114 -188 -182 -190 -196 -318 -380 -437 -625
-198 -411 -287 -893 -276 -1491 l5 -243 -232 0 -232 0 -45 -30 c-26 -17 -58
-46 -72 -65 -35 -45 -76 -134 -76 -163 l0 -24 352 4 352 3 14 -50 c229 -850
409 -1330 641 -1714 379 -625 870 -953 1601 -1066 165 -26 572 -32 736 -11
537 69 911 286 1151 671 163 260 273 684 273 1047 0 68 4 108 10 108 33 0 417
-279 585 -424 100 -87 100 -87 148 -83 61 5 101 34 105 74 3 25 -6 39 -55 86
-125 121 -373 306 -609 453 -77 48 -146 93 -155 101 -13 10 -17 44 -23 156
-22 458 -110 961 -238 1357 -116 360 -252 646 -443 935 -129 194 -244 335
-415 505 -162 163 -304 280 -493 407 -71 48 -160 115 -199 150 -442 396 -930
576 -1458 536z m622 -242 c43 -11 90 -27 105 -36 l28 -16 -35 5 c-182 27 -355
31 -427 10 -21 -6 -23 -3 -23 31 l0 38 138 -6 c84 -4 167 -14 214 -26z m-222
-152 c433 -46 818 -200 1190 -477 139 -104 411 -372 534 -527 317 -400 637
-993 766 -1423 87 -291 120 -506 127 -834 l6 -247 -178 91 c-1011 517 -2291
826 -3542 855 l-281 6 -6 26 c-14 58 -19 689 -7 856 68 978 362 1524 897 1660
124 32 284 36 494 14z m-964 -3011 c0 -90 6 -203 13 -253 69 -488 323 -870
708 -1067 216 -111 466 -157 681 -124 117 18 277 68 379 120 256 129 501 370
598 591 63 142 87 311 63 448 -8 42 -11 77 -8 77 18 0 374 -124 500 -175 234
-93 585 -269 638 -319 10 -10 9 -34 -3 -126 -63 -446 -275 -878 -571 -1160
-330 -315 -731 -444 -1191 -385 -483 63 -906 278 -1278 650 -421 421 -734
1028 -884 1713 -17 77 -31 148 -31 156 0 14 24 16 193 16 l193 0 0 -162z m939
92 c127 -16 269 -35 316 -41 l87 -12 6 -66 c24 -257 -131 -394 -386 -340 -187
40 -278 168 -278 390 0 74 3 99 13 99 7 0 116 -13 242 -30z m750 -109 c44 -10
92 -22 107 -25 25 -6 26 -8 17 -35 -9 -26 -15 -29 -68 -33 -70 -5 -113 -32
-137 -88 -10 -22 -20 -40 -23 -40 -3 0 -19 10 -34 23 l-28 22 21 90 c26 116
26 114 47 109 10 -2 54 -12 98 -23z m550 -299 c-5 -6 -95 21 -95 28 0 5 9 30
21 57 l21 48 27 -65 c16 -36 27 -66 26 -68z"/>
<path d="M74 7378 c-12 -5 -34 -32 -49 -59 l-27 -50 27 -127 c216 -1039 655
-2065 1272 -2970 932 -1367 2248 -2432 3623 -2932 882 -321 1744 -403 2535
-240 1394 287 2736 1283 3812 2830 578 830 1076 1830 1459 2928 77 220 85 260
58 283 -26 22 -43 0 -83 -106 -21 -55 -74 -188 -118 -295 -605 -1467 -1263
-2541 -2047 -3339 -495 -502 -947 -833 -1521 -1112 -531 -257 -1077 -414
-1690 -483 -471 -54 -1078 -46 -1590 20 -2589 333 -4519 2034 -5320 4689 -70
232 -149 541 -191 740 -27 132 -52 188 -96 219 -26 18 -26 18 -54 4z"/>
<path d="M2410 4838 c0 -4 20 -55 45 -114 109 -261 248 -461 410 -590 277
-223 600 -259 1033 -117 l116 38 -205 6 c-223 7 -331 24 -501 80 -313 102
-619 333 -848 639 -44 59 -50 66 -50 58z"/>
<path d="M10572 4705 c-182 -93 -392 -166 -582 -201 -47 -8 -159 -18 -250 -20
-91 -3 -184 -10 -208 -16 -48 -12 -70 -39 -48 -57 47 -39 381 -47 543 -12 181
38 311 93 469 200 74 50 221 172 204 169 -3 0 -60 -29 -128 -63z"/>
<path d="M8455 923 c-87 -52 -322 -164 -455 -216 -627 -244 -1300 -303 -1861
-162 -168 43 -280 85 -456 171 -96 47 -185 84 -201 84 -39 0 -82 -35 -82 -66
0 -49 29 -91 125 -183 297 -283 596 -454 918 -523 149 -32 416 -32 576 0 396
80 794 296 1224 666 112 96 292 266 280 266 -4 -1 -35 -17 -68 -37z"/>
</g>
</svg>
