<?xml version="1.0" standalone="no"?>
<!DOCTYPE svg PUBLIC "-//W3C//DTD SVG 20010904//EN"
 "http://www.w3.org/TR/2001/REC-SVG-20010904/DTD/svg10.dtd">
<svg version="1.0" xmlns="http://www.w3.org/2000/svg"
 width="236.000000pt" height="183.000000pt" viewBox="0 0 236.000000 183.000000"
 preserveAspectRatio="xMidYMid meet">

<g transform="translate(0.000000,183.000000) scale(0.100000,-0.100000)"
fill="#000000" stroke="none">
<path d="M80 900 l0 -850 1110 0 1110 0 0 850 0 850 -1110 0 -1110 0 0 -850z
m2148 210 l2 -565 -222 222 -223 223 -213 -212 -212 -213 -305 305 -305 305
-293 -293 c-160 -160 -295 -292 -300 -292 -9 0 -10 1074 0 1083 3 4 470 6
1037 5 l1031 -3 3 -565z"/>
<path d="M230 1525 l0 -75 75 0 75 0 0 -70 0 -70 -75 0 -75 0 0 -75 0 -75 75
0 75 0 0 -75 0 -75 -75 0 -75 0 0 -75 0 -75 48 0 c67 0 102 36 102 103 l0 47
48 0 c67 0 92 27 92 98 l0 52 53 0 c72 0 97 25 97 98 l0 52 75 0 75 0 0 -53
c0 -72 25 -97 98 -97 l52 0 0 -53 c0 -72 25 -97 98 -97 l52 0 0 -53 c0 -71 25
-97 93 -97 l47 0 0 -48 c0 -40 5 -53 29 -76 24 -23 36 -27 72 -24 l44 3 3 72
3 72 72 3 72 3 3 72 3 72 72 3 72 3 3 73 3 72 74 0 75 0 0 -75 0 -75 70 0 69
0 3 -72 3 -73 73 -3 72 -3 0 76 0 75 -75 0 -75 0 0 75 0 75 75 0 75 0 0 75 0
75 -75 0 -75 0 0 70 0 70 75 0 75 0 0 75 0 75 -75 0 -75 0 0 -70 0 -70 -70 0
-70 0 0 70 0 70 -75 0 -75 0 0 -70 0 -70 -75 0 -75 0 0 70 0 70 -75 0 -75 0 0
-70 0 -70 -75 0 -75 0 0 70 0 70 -70 0 -70 0 0 -70 0 -70 -75 0 -75 0 0 70 0
70 -75 0 -75 0 0 -70 0 -70 -75 0 -75 0 0 70 0 70 -75 0 -75 0 0 -70 0 -70
-70 0 -70 0 0 70 0 70 -75 0 -75 0 0 -75z m440 -145 l0 -70 -75 0 -75 0 0 -75
0 -75 -70 0 -70 0 0 75 0 75 70 0 70 0 0 70 0 70 75 0 75 0 0 -70z m300 0 l0
-70 75 0 75 0 0 70 0 70 70 0 70 0 0 -70 0 -70 75 0 75 0 0 70 0 70 75 0 75 0
0 -70 0 -70 75 0 75 0 0 70 0 70 75 0 75 0 0 -70 0 -70 70 0 70 0 0 -75 0 -75
-70 0 -70 0 0 75 0 75 -75 0 -75 0 0 -75 0 -75 -75 0 -75 0 0 -75 0 -75 -75 0
-75 0 0 -75 0 -75 -75 0 -75 0 0 75 0 75 -70 0 -70 0 0 75 0 75 -75 0 -75 0 0
75 0 75 -75 0 -75 0 0 70 0 70 75 0 75 0 0 -70z"/>
<path d="M1120 1235 l0 -75 70 0 70 0 0 -75 0 -75 75 0 75 0 0 75 0 75 75 0
75 0 0 75 0 75 -75 0 -75 0 0 -75 0 -75 -75 0 -75 0 0 75 0 75 -70 0 -70 0 0
-75z"/>
</g>
</svg>
