<?xml version="1.0" standalone="no"?>
<!DOCTYPE svg PUBLIC "-//W3C//DTD SVG 20010904//EN"
 "http://www.w3.org/TR/2001/REC-SVG-20010904/DTD/svg10.dtd">
<svg version="1.0" xmlns="http://www.w3.org/2000/svg"
 width="512.000000pt" height="512.000000pt" viewBox="0 0 512.000000 512.000000"
 preserveAspectRatio="xMidYMid meet">

<g transform="translate(0.000000,512.000000) scale(0.100000,-0.100000)"
fill="#000000" stroke="none">
<path d="M205 5102 c-65 -22 -109 -54 -146 -105 -56 -77 -59 -103 -59 -527 0
-456 1 -462 84 -546 114 -113 278 -113 392 0 78 79 84 107 84 398 l0 238 238
0 c291 0 319 6 398 84 79 80 102 173 68 286 -12 39 -29 66 -68 106 -84 83 -90
84 -550 84 -345 -1 -397 -3 -441 -18z"/>
<path d="M4026 5104 c-70 -22 -149 -103 -170 -174 -34 -113 -11 -206 68 -286
79 -78 107 -84 398 -84 l238 0 0 -238 c0 -291 6 -319 84 -398 114 -113 278
-113 392 1 85 84 85 89 82 567 l-3 403 -28 57 c-32 64 -80 111 -146 142 -44
20 -62 21 -456 23 -343 2 -418 0 -459 -13z"/>
<path d="M1853 4214 c-45 -22 -282 -320 -486 -613 -255 -362 -432 -716 -466
-931 -54 -333 111 -715 404 -933 80 -59 193 -123 202 -113 3 2 -7 40 -21 83
-69 209 -94 478 -62 674 58 349 285 785 680 1307 72 96 137 182 144 191 10 15
-4 37 -108 168 -79 99 -133 157 -155 167 -42 20 -91 20 -132 0z"/>
<path d="M2972 4213 c-57 -32 -372 -399 -607 -707 -336 -442 -557 -848 -616
-1131 -36 -174 -20 -383 46 -582 186 -563 726 -932 1314 -899 542 30 1005 384
1176 899 66 199 82 408 46 582 -62 300 -302 728 -684 1220 -216 277 -489 590
-540 617 -42 22 -94 22 -135 1z"/>
<path d="M186 1264 c-34 -11 -64 -31 -102 -68 -85 -85 -85 -90 -82 -568 3
-385 4 -405 24 -449 31 -66 78 -114 142 -146 l57 -28 403 -3 c478 -3 483 -3
567 82 114 114 114 278 1 392 -79 78 -107 84 -398 84 l-238 0 0 238 c0 291 -6
319 -84 398 -80 79 -178 102 -290 68z"/>
<path d="M4746 1264 c-34 -11 -64 -31 -102 -68 -78 -79 -84 -107 -84 -398 l0
-238 -238 0 c-291 0 -319 -6 -398 -84 -113 -114 -113 -278 1 -392 84 -85 89
-85 567 -82 l403 3 57 28 c64 32 111 80 142 146 20 44 21 64 24 449 3 478 3
483 -82 567 -80 80 -178 103 -290 69z"/>
</g>
</svg>
