<?xml version="1.0" standalone="no"?>
<!DOCTYPE svg PUBLIC "-//W3C//DTD SVG 20010904//EN"
 "http://www.w3.org/TR/2001/REC-SVG-20010904/DTD/svg10.dtd">
<svg version="1.0" xmlns="http://www.w3.org/2000/svg"
 width="512.000000pt" height="512.000000pt" viewBox="0 0 512.000000 512.000000"
 preserveAspectRatio="xMidYMid meet">

<g transform="translate(0.000000,512.000000) scale(0.100000,-0.100000)"
fill="#000000" stroke="none">
<path d="M2321 5109 c-486 -43 -988 -249 -1376 -564 -121 -98 -334 -318 -423
-437 -266 -355 -429 -748 -499 -1198 -24 -161 -24 -539 0 -700 74 -476 262
-908 552 -1265 98 -121 318 -334 437 -423 352 -264 758 -433 1188 -496 153
-22 363 -31 435 -17 225 42 375 252 344 480 -12 81 -36 136 -94 211 -67 87
-105 174 -112 257 -16 207 116 396 313 448 45 12 122 15 344 15 304 1 437 9
565 35 460 95 865 442 1030 882 154 408 114 922 -108 1394 -105 223 -243 415
-442 615 -153 154 -226 214 -385 321 -500 335 -1150 497 -1769 442z m-318
-589 c158 -60 268 -219 268 -391 0 -136 -53 -250 -158 -335 -206 -168 -528
-97 -643 141 -143 293 76 628 400 611 44 -2 99 -13 133 -26z m1370 15 c81 -21
132 -49 192 -106 168 -159 172 -438 8 -603 -188 -189 -505 -158 -654 64 -49
73 -70 144 -70 239 1 275 259 475 524 406z m-2262 -1139 c100 -30 164 -76 226
-159 189 -258 39 -616 -280 -669 -172 -28 -358 67 -438 224 -84 167 -53 363
78 495 56 56 87 75 167 104 63 22 183 24 247 5z m3141 -5 c84 -29 114 -47 171
-104 246 -247 110 -661 -236 -719 -164 -27 -345 59 -431 206 -119 203 -37 482
173 591 94 48 227 59 323 26z"/>
</g>
</svg>
