<?xml version="1.0" standalone="no"?>
<!DOCTYPE svg PUBLIC "-//W3C//DTD SVG 20010904//EN"
 "http://www.w3.org/TR/2001/REC-SVG-20010904/DTD/svg10.dtd">
<svg version="1.0" xmlns="http://www.w3.org/2000/svg"
 width="96.000000pt" height="96.000000pt" viewBox="0 0 96.000000 96.000000"
 preserveAspectRatio="xMidYMid meet">

<g transform="translate(0.000000,96.000000) scale(0.100000,-0.100000)"
fill="#000000" stroke="none">
<path d="M680 869 c-14 -6 -55 -39 -91 -75 -57 -57 -67 -63 -79 -50 -15 19
-41 21 -58 4 -17 -17 -15 -43 4 -59 13 -11 -3 -31 -129 -158 -149 -150 -170
-178 -180 -245 -4 -22 -20 -56 -37 -77 -16 -21 -30 -44 -30 -51 0 -18 62 -78
79 -78 7 0 30 13 50 29 20 16 55 33 76 36 69 13 106 39 252 180 131 125 144
135 163 123 39 -25 78 25 46 61 -14 16 -11 22 50 82 70 70 91 114 80 172 -16
87 -112 139 -196 106z m-100 -304 l44 -45 -34 -34 c-233 -224 -257 -244 -306
-259 -27 -8 -58 -19 -69 -23 -17 -7 -18 -6 -8 8 7 8 16 37 19 64 6 47 11 54
150 192 80 78 148 142 152 142 4 0 28 -20 52 -45z"/>
</g>
</svg>
