<?xml version="1.0" standalone="no"?>
<!DOCTYPE svg PUBLIC "-//W3C//DTD SVG 20010904//EN"
 "http://www.w3.org/TR/2001/REC-SVG-20010904/DTD/svg10.dtd">
<svg version="1.0" xmlns="http://www.w3.org/2000/svg"
 width="512.000000pt" height="512.000000pt" viewBox="0 0 512.000000 512.000000"
 preserveAspectRatio="xMidYMid meet">

<g transform="translate(0.000000,512.000000) scale(0.100000,-0.100000)"
fill="#000000" stroke="none">
<path d="M930 4655 l0 -465 -465 0 -465 0 0 -235 0 -235 465 0 464 0 3 -1207
c3 -1207 3 -1208 24 -1266 52 -140 158 -244 303 -295 41 -15 164 -17 1254 -19
l1207 -4 0 -464 0 -465 235 0 235 0 0 465 0 465 465 0 465 0 0 235 0 235
-1860 0 -1860 0 0 1860 0 1860 -235 0 -235 0 0 -465z"/>
<path d="M1860 3955 l0 -235 930 0 930 0 0 -930 0 -930 235 0 236 0 -4 978
c-2 874 -4 982 -19 1023 -51 144 -155 251 -295 302 -58 22 -66 22 -1035 25
l-978 3 0 -236z"/>
</g>
</svg>
