<?xml version="1.0" standalone="no"?>
<!DOCTYPE svg PUBLIC "-//W3C//DTD SVG 20010904//EN"
 "http://www.w3.org/TR/2001/REC-SVG-20010904/DTD/svg10.dtd">
<svg version="1.0" xmlns="http://www.w3.org/2000/svg"
 width="1024.000000pt" height="1024.000000pt" viewBox="0 0 1024.000000 1024.000000"
 preserveAspectRatio="xMidYMid meet">

<g transform="translate(0.000000,1024.000000) scale(0.100000,-0.100000)"
fill="#000000" stroke="none">
<path d="M2331 10039 c-155 -30 -292 -153 -353 -315 -22 -58 -22 -66 -26 -721
l-3 -663 -709 0 c-681 0 -710 -1 -773 -20 -219 -68 -361 -293 -327 -517 11
-75 62 -187 110 -245 43 -52 141 -115 217 -138 63 -19 92 -20 774 -20 l709 0
2 -2422 c3 -2320 4 -2425 21 -2478 50 -150 152 -255 303 -312 l59 -23 2367 -3
2367 -2 3 -788 c3 -773 4 -788 25 -849 77 -226 299 -363 526 -325 138 24 276
120 339 238 58 107 58 109 58 951 l0 772 852 3 853 3 59 23 c204 77 321 245
319 457 -2 132 -49 241 -147 333 -62 59 -154 106 -235 122 -34 6 -359 10 -877
10 l-824 0 0 2263 0 2262 736 725 c450 444 750 748 774 784 181 267 42 637
-269 718 -83 21 -144 22 -231 2 -112 -25 -169 -68 -422 -319 -128 -127 -455
-450 -725 -718 l-492 -487 -2246 0 -2245 0 0 643 c0 537 -3 652 -15 706 -58
244 -304 399 -554 350z m3744 -2997 c-307 -305 -2728 -2697 -3062 -3026 l-113
-111 0 1748 0 1747 1768 0 1767 0 -360 -358z m992 -3929 c-2 -2 -817 -2 -1811
-1 l-1807 3 1808 1787 1808 1787 3 -1786 c1 -983 1 -1788 -1 -1790z"/>
</g>
</svg>
