<?xml version="1.0" standalone="no"?>
<!DOCTYPE svg PUBLIC "-//W3C//DTD SVG 20010904//EN"
 "http://www.w3.org/TR/2001/REC-SVG-20010904/DTD/svg10.dtd">
<svg version="1.0" xmlns="http://www.w3.org/2000/svg"
 width="512.000000pt" height="512.000000pt" viewBox="0 0 512.000000 512.000000"
 preserveAspectRatio="xMidYMid meet">

<g transform="translate(0.000000,512.000000) scale(0.100000,-0.100000)"
fill="#000000" stroke="none">
<path d="M415 4786 c-37 -17 -70 -52 -84 -89 -8 -20 -11 -625 -11 -1991 0
-2139 -3 -2011 56 -2128 59 -116 197 -221 326 -247 37 -8 635 -10 2025 -9
l1972 3 27 21 c53 39 69 71 69 134 0 63 -16 95 -69 134 l-27 21 -1979 5 -1979
5 -27 21 c-15 11 -37 33 -48 48 l-21 27 -5 1979 -5 1979 -21 27 c-11 15 -32
37 -46 47 -34 25 -113 32 -153 13z"/>
<path d="M4415 4626 c-42 -18 -83 -70 -89 -109 -2 -18 -10 -86 -16 -153 -26
-282 -117 -551 -262 -769 -112 -170 -317 -342 -506 -425 -196 -87 -353 -117
-672 -130 -323 -13 -502 -44 -714 -126 -404 -155 -711 -478 -891 -934 -77
-198 -155 -584 -143 -712 5 -52 27 -89 72 -122 39 -29 133 -29 172 0 57 42 67
66 75 181 34 438 174 771 430 1023 154 153 309 243 521 304 146 42 252 56 498
66 420 17 682 83 941 237 426 253 718 750 795 1354 24 196 14 248 -58 302 -33
25 -113 32 -153 13z"/>
</g>
</svg>
