<?xml version="1.0" standalone="no"?>
<!DOCTYPE svg PUBLIC "-//W3C//DTD SVG 20010904//EN"
 "http://www.w3.org/TR/2001/REC-SVG-20010904/DTD/svg10.dtd">
<svg version="1.0" xmlns="http://www.w3.org/2000/svg"
 width="512.000000pt" height="512.000000pt" viewBox="0 0 512.000000 512.000000"
 preserveAspectRatio="xMidYMid meet">

<g transform="translate(0.000000,512.000000) scale(0.100000,-0.100000)"
fill="#000000" stroke="none">
<path d="M938 5100 c-20 -11 -47 -36 -60 -57 l-23 -38 -3 -620 -2 -620 22 -45
c13 -25 38 -55 57 -67 l34 -23 634 0 c690 0 667 -2 712 56 12 15 26 44 31 65
22 79 12 92 -260 364 -137 137 -250 254 -250 260 0 26 250 165 395 219 327
122 721 128 1060 15 266 -89 486 -234 700 -463 114 -122 151 -146 228 -146 61
0 138 41 173 91 22 32 29 55 32 105 6 84 -15 125 -118 237 -215 234 -454 407
-717 519 -648 274 -1351 209 -1941 -182 -66 -44 -125 -80 -129 -80 -5 0 -98
90 -208 201 -110 111 -214 207 -232 215 -44 19 -91 17 -135 -6z"/>
<path d="M154 3386 c-27 -13 -67 -43 -87 -66 -72 -85 -68 31 -65 -1630 3
-1464 3 -1496 23 -1535 47 -96 133 -149 240 -150 129 0 84 -42 884 819 398
429 730 795 742 818 30 59 35 134 14 199 -16 51 -55 92 -749 788 -585 587
-741 738 -781 757 -68 32 -152 32 -221 0z"/>
<path d="M4750 3389 c-35 -15 -213 -187 -773 -747 -423 -422 -737 -744 -750
-767 -31 -57 -30 -173 1 -232 12 -23 346 -391 741 -816 799 -860 758 -822 886
-822 107 1 193 54 240 150 20 39 20 71 23 1529 3 1650 6 1552 -63 1633 -75 87
-204 118 -305 72z"/>
<path d="M2480 3184 c-45 -20 -87 -59 -111 -106 -18 -36 -19 -78 -19 -1368 0
-1178 2 -1335 15 -1368 64 -152 273 -172 370 -34 l30 44 3 1344 c2 1309 2
1345 -17 1382 -53 102 -172 149 -271 106z"/>
</g>
</svg>
