<?xml version="1.0" standalone="no"?>
<!DOCTYPE svg PUBLIC "-//W3C//DTD SVG 20010904//EN"
 "http://www.w3.org/TR/2001/REC-SVG-20010904/DTD/svg10.dtd">
<svg version="1.0" xmlns="http://www.w3.org/2000/svg"
 width="512.000000pt" height="512.000000pt" viewBox="0 0 512.000000 512.000000"
 preserveAspectRatio="xMidYMid meet">

<g transform="translate(0.000000,512.000000) scale(0.100000,-0.100000)"
fill="#000000" stroke="none">
<path d="M178 5104 c-54 -17 -124 -80 -153 -139 -29 -59 -27 -175 3 -233 28
-52 1550 -1471 1614 -1503 59 -30 134 -35 199 -14 51 16 92 55 788 749 587
585 738 741 757 781 49 103 22 233 -66 308 -84 72 31 67 -1614 66 -1257 0
-1488 -3 -1528 -15z"/>
<path d="M3720 4248 c-25 -13 -55 -38 -67 -57 l-23 -34 0 -634 c0 -690 -2
-667 56 -712 15 -12 44 -26 65 -31 79 -21 92 -12 370 266 l256 256 45 -69
c104 -160 179 -329 222 -505 39 -158 49 -264 43 -443 -9 -251 -56 -437 -167
-660 -88 -175 -172 -288 -342 -456 -89 -88 -154 -161 -163 -182 -51 -123 35
-272 165 -285 106 -10 153 17 324 186 170 168 299 344 400 549 328 659 278
1419 -134 2041 -44 66 -80 125 -80 129 0 5 90 98 201 208 111 110 207 214 215
232 30 70 3 153 -63 194 l-38 24 -620 3 -620 2 -45 -22z"/>
<path d="M340 2754 c-167 -72 -165 -318 2 -389 33 -13 189 -15 1363 -15 1176
0 1330 2 1363 16 170 70 176 300 10 385 -36 18 -78 19 -1370 19 -1168 -1
-1337 -3 -1368 -16z"/>
<path d="M1682 1905 c-23 -7 -54 -21 -68 -30 -15 -9 -372 -338 -794 -730 -853
-792 -815 -752 -815 -880 1 -107 54 -193 150 -240 39 -20 71 -20 1535 -23
1661 -3 1545 -7 1630 65 88 76 116 207 65 309 -19 38 -195 219 -757 781 -711
710 -735 732 -787 747 -65 19 -101 19 -159 1z"/>
</g>
</svg>
