<?xml version="1.0" standalone="no"?>
<!DOCTYPE svg PUBLIC "-//W3C//DTD SVG 20010904//EN"
 "http://www.w3.org/TR/2001/REC-SVG-20010904/DTD/svg10.dtd">
<svg version="1.0" xmlns="http://www.w3.org/2000/svg"
 width="100.000000pt" height="100.000000pt" viewBox="0 0 100.000000 100.000000"
 preserveAspectRatio="xMidYMid meet">

<g transform="translate(0.000000,100.000000) scale(0.100000,-0.100000)"
fill="#000000" stroke="none">
<path d="M456 890 c-39 -12 -93 -50 -107 -77 -9 -17 -18 -20 -44 -16 -46 7
-119 -27 -145 -69 -29 -48 -26 -165 7 -229 12 -26 23 -61 23 -78 0 -28 -6 -33
-74 -66 -79 -37 -108 -68 -110 -119 l-1 -31 67 -3 c64 -3 67 -4 70 -30 l3 -27
355 0 355 0 3 27 c3 26 6 27 70 30 l67 3 -2 33 c-2 46 -43 87 -120 122 -58 26
-63 31 -63 60 0 18 11 53 24 80 18 36 24 65 25 123 1 67 -2 79 -25 106 -14 17
-32 31 -40 31 -7 0 -18 10 -25 21 -9 18 -18 21 -55 16 -40 -4 -48 -1 -78 29
-19 19 -41 34 -50 34 -8 0 -20 9 -26 20 -12 22 -51 25 -104 10z m81 -49 c6
-10 25 -21 42 -24 47 -10 62 -49 57 -153 -2 -47 -8 -89 -13 -93 -6 -3 -16 -23
-22 -43 -7 -21 -17 -40 -22 -43 -5 -4 -9 -30 -9 -59 0 -64 24 -94 98 -121 68
-25 119 -60 137 -95 l16 -30 -321 0 -321 0 16 29 c18 36 53 61 128 92 89 36
107 57 107 123 0 30 -4 57 -9 61 -5 3 -15 22 -22 43 -6 20 -16 40 -22 43 -5 4
-11 46 -13 93 -5 117 13 153 93 182 52 18 66 17 80 -5z m-236 -93 c2 -23 5
-33 17 -61 16 -37 15 -47 -4 -69 -16 -16 -15 -20 15 -50 17 -17 31 -36 31 -41
0 -5 7 -24 16 -43 16 -33 16 -36 -2 -49 -19 -15 -19 -15 1 -31 20 -15 20 -15
-4 -35 -22 -18 -24 -18 -36 -3 -14 19 -39 9 -31 -12 4 -9 -13 -23 -50 -41 -31
-15 -64 -37 -74 -50 -20 -25 -68 -31 -88 -11 -9 9 -15 9 -24 0 -7 -7 -16 -12
-20 -12 -15 0 12 39 38 56 23 16 26 16 38 -1 16 -22 39 -10 31 16 -5 15 0 20
25 26 56 11 67 89 25 175 -30 62 -30 64 -5 71 11 3 20 10 20 17 0 7 -9 14 -20
17 -15 4 -20 14 -20 39 0 23 6 37 20 44 11 6 20 17 20 25 0 8 15 19 33 24 44
13 47 13 48 -1z m439 2 c0 -6 7 -13 16 -17 37 -14 64 -50 64 -86 0 -26 -4 -34
-16 -33 -25 2 -29 -24 -5 -31 26 -7 26 -8 -4 -71 -42 -86 -31 -164 25 -175 25
-6 30 -11 25 -26 -8 -26 15 -38 31 -16 12 16 14 16 43 -5 17 -12 31 -28 31
-37 0 -13 -3 -13 -15 -3 -12 10 -19 10 -27 2 -20 -20 -69 -14 -88 11 -10 13
-43 35 -74 50 -37 18 -54 32 -50 41 8 21 -17 31 -31 12 -12 -15 -14 -15 -36 3
-24 20 -24 20 -4 35 19 15 19 17 2 30 -17 13 -17 16 -3 45 9 16 16 36 16 44 0
7 14 27 31 45 29 29 30 33 15 53 -16 23 -13 62 7 87 6 8 6 17 -2 26 -9 11 -9
15 1 19 23 9 48 7 48 -3z"/>
<path d="M244 669 c-10 -17 13 -36 27 -22 12 12 4 33 -11 33 -5 0 -12 -5 -16
-11z"/>
<path d="M244 549 c-10 -17 13 -36 27 -22 12 12 4 33 -11 33 -5 0 -12 -5 -16
-11z"/>
<path d="M304 489 c-10 -17 13 -36 27 -22 12 12 4 33 -11 33 -5 0 -12 -5 -16
-11z"/>
<path d="M244 429 c-10 -17 13 -36 27 -22 12 12 4 33 -11 33 -5 0 -12 -5 -16
-11z"/>
<path d="M724 669 c-10 -17 13 -36 27 -22 12 12 4 33 -11 33 -5 0 -12 -5 -16
-11z"/>
<path d="M724 549 c-10 -17 13 -36 27 -22 12 12 4 33 -11 33 -5 0 -12 -5 -16
-11z"/>
<path d="M664 489 c-10 -17 13 -36 27 -22 12 12 4 33 -11 33 -5 0 -12 -5 -16
-11z"/>
<path d="M724 429 c-10 -17 13 -36 27 -22 12 12 4 33 -11 33 -5 0 -12 -5 -16
-11z"/>
</g>
</svg>
