<?xml version="1.0" standalone="no"?>
<!DOCTYPE svg PUBLIC "-//W3C//DTD SVG 20010904//EN"
 "http://www.w3.org/TR/2001/REC-SVG-20010904/DTD/svg10.dtd">
<svg version="1.0" xmlns="http://www.w3.org/2000/svg"
 width="512.000000pt" height="512.000000pt" viewBox="0 0 512.000000 512.000000"
 preserveAspectRatio="xMidYMid meet">

<g transform="translate(0.000000,512.000000) scale(0.100000,-0.100000)"
fill="#000000" stroke="none">
<path d="M3145 5100 c-115 -23 -245 -97 -315 -178 -62 -74 -93 -140 -189 -416
-50 -142 -103 -281 -118 -309 -40 -75 -145 -175 -228 -219 -111 -58 -167 -68
-371 -68 -99 0 -204 -4 -234 -9 -190 -32 -334 -153 -405 -342 -131 -351 -180
-458 -201 -436 -3 3 -45 115 -93 250 -48 134 -99 264 -113 288 -57 97 -168
185 -278 221 -59 20 -92 22 -332 26 l-268 4 0 -151 0 -151 231 0 c256 0 288
-5 348 -56 43 -37 48 -49 151 -339 79 -223 102 -268 162 -319 140 -120 364
-92 467 58 23 34 133 300 205 499 21 57 54 98 104 129 35 22 50 23 272 29 263
7 310 16 448 80 111 51 195 113 279 204 103 111 144 192 248 488 51 145 98
274 105 287 39 76 143 140 229 140 96 0 193 -55 233 -133 11 -23 114 -291 228
-597 114 -305 214 -569 223 -585 38 -73 116 -119 202 -119 85 0 164 46 201
117 16 29 115 297 199 537 33 93 56 144 76 165 l29 30 235 3 235 3 0 150 0
149 -222 0 c-301 0 -376 -18 -483 -111 -58 -52 -91 -118 -175 -354 -45 -126
-86 -237 -90 -245 -8 -13 -9 -13 -14 0 -101 278 -357 951 -379 995 -41 82
-153 192 -237 233 -109 54 -254 74 -365 52z"/>
<path d="M3100 1515 l0 -1505 240 0 240 0 0 1505 0 1505 -240 0 -240 0 0
-1505z"/>
<path d="M4650 1325 l0 -1315 235 0 235 0 0 1315 0 1315 -235 0 -235 0 0
-1315z"/>
<path d="M2330 1155 l0 -1145 235 0 235 0 0 1145 0 1145 -235 0 -235 0 0
-1145z"/>
<path d="M10 1070 l0 -1060 240 0 240 0 0 1060 0 1060 -240 0 -240 0 0 -1060z"/>
<path d="M3870 675 l0 -665 240 0 240 0 0 665 0 665 -240 0 -240 0 0 -665z"/>
<path d="M1560 610 l0 -600 235 0 235 0 0 600 0 600 -235 0 -235 0 0 -600z"/>
<path d="M790 450 l0 -440 235 0 235 0 0 440 0 440 -235 0 -235 0 0 -440z"/>
</g>
</svg>
