<?xml version="1.0" standalone="no"?>
<!DOCTYPE svg PUBLIC "-//W3C//DTD SVG 20010904//EN"
 "http://www.w3.org/TR/2001/REC-SVG-20010904/DTD/svg10.dtd">
<svg version="1.0" xmlns="http://www.w3.org/2000/svg"
 width="396.000000pt" height="348.000000pt" viewBox="0 0 396.000000 348.000000"
 preserveAspectRatio="xMidYMid meet">

<g transform="translate(0.000000,348.000000) scale(0.100000,-0.100000)"
fill="#000000" stroke="none">
<path d="M1361 3244 c-194 -42 -330 -184 -363 -381 -25 -150 21 -282 137 -399
92 -92 168 -125 300 -132 142 -7 256 39 353 142 127 134 164 320 97 488 -57
142 -182 249 -330 281 -89 20 -109 20 -194 1z"/>
<path d="M235 2964 c-49 -25 -83 -64 -100 -112 -20 -61 -19 -84 7 -145 91
-214 304 -476 513 -632 146 -109 226 -216 265 -356 19 -69 20 -101 20 -526 l0
-453 281 0 282 0 -5 43 c-8 65 -36 114 -92 160 -91 75 -232 223 -280 296 -100
149 -120 247 -71 346 45 93 137 143 242 132 75 -8 123 -42 180 -129 l48 -71 7
41 c11 65 54 146 108 199 159 159 400 159 559 0 58 -57 83 -104 107 -197 14
-54 14 -75 5 -134 -14 -83 -49 -157 -98 -208 l-35 -36 85 -40 c155 -72 292
-182 384 -308 l47 -64 24 23 c38 36 64 95 64 148 -1 60 -49 221 -103 344 -140
320 -433 587 -804 733 -138 55 -253 91 -510 162 -333 92 -408 134 -617 341
-120 121 -141 147 -211 265 -42 73 -93 146 -112 163 -32 28 -43 31 -98 31 -36
0 -74 -7 -92 -16z"/>
<path d="M2618 2736 c-179 -52 -300 -235 -269 -407 23 -131 100 -236 211 -288
48 -23 68 -26 155 -26 87 0 107 4 155 26 146 69 238 238 212 389 -32 181 -170
304 -352 316 -37 2 -85 -2 -112 -10z"/>
<path d="M3564 2521 c-30 -13 -68 -62 -121 -154 -54 -93 -107 -156 -221 -261
-126 -115 -172 -136 -440 -206 -127 -33 -249 -67 -271 -76 l-40 -16 79 -90
c145 -163 243 -335 309 -539 62 -192 67 -294 19 -387 l-27 -52 134 0 135 0 0
328 c0 371 7 440 51 531 39 80 79 124 196 217 164 133 299 294 372 444 56 116
47 185 -31 243 -29 22 -111 32 -144 18z"/>
<path d="M1836 1734 c-63 -20 -149 -104 -165 -160 -16 -57 -14 -161 5 -199
101 -213 392 -211 487 4 28 64 27 154 -2 214 -30 62 -101 123 -164 142 -62 18
-98 18 -161 -1z"/>
<path d="M1195 1559 c-30 -26 -35 -37 -35 -74 0 -87 130 -278 262 -382 113
-90 153 -135 179 -200 20 -53 23 -76 24 -258 1 -110 3 -233 4 -272 l1 -73 289
0 288 0 5 98 c3 53 4 157 4 229 -1 73 3 133 7 133 4 0 38 -31 76 -68 76 -76
127 -162 161 -267 12 -38 31 -80 42 -92 43 -47 125 -35 163 23 49 76 -41 318
-172 464 -133 147 -304 235 -603 311 -85 22 -183 53 -216 69 -85 41 -227 182
-279 274 -50 91 -77 116 -126 116 -29 0 -47 -8 -74 -31z"/>
</g>
</svg>
