<?xml version="1.0" standalone="no"?>
<!DOCTYPE svg PUBLIC "-//W3C//DTD SVG 20010904//EN"
 "http://www.w3.org/TR/2001/REC-SVG-20010904/DTD/svg10.dtd">
<svg version="1.0" xmlns="http://www.w3.org/2000/svg"
 width="512.000000pt" height="512.000000pt" viewBox="0 0 512.000000 512.000000"
 preserveAspectRatio="xMidYMid meet">

<g transform="translate(0.000000,512.000000) scale(0.100000,-0.100000)"
fill="#000000" stroke="none">
<path d="M1215 5105 c-570 -80 -1029 -490 -1169 -1045 -14 -52 -29 -135 -35
-185 -15 -124 -15 -2506 0 -2630 69 -583 484 -1057 1049 -1199 52 -14 136 -29
185 -35 124 -15 2506 -15 2630 0 525 62 964 405 1155 901 31 81 67 233 79 333
15 124 15 2506 0 2630 -62 525 -405 964 -901 1155 -81 31 -233 67 -333 79
-137 17 -2541 13 -2660 -4z m2961 -652 c129 -43 233 -147 277 -277 21 -62 22
-184 2 -250 -82 -271 -405 -387 -640 -230 -138 91 -211 254 -186 413 26 160
135 291 284 342 68 23 197 25 263 2z m-1396 -508 c297 -49 559 -183 770 -395
269 -268 410 -609 410 -990 0 -381 -141 -722 -410 -990 -268 -269 -609 -410
-990 -410 -381 0 -722 141 -990 410 -269 268 -410 609 -410 990 0 381 141 722
410 990 207 208 470 344 760 395 103 17 346 18 450 0z"/>
<path d="M3989 4155 c-58 -31 -80 -116 -45 -170 68 -104 226 -58 226 65 0 90
-102 148 -181 105z"/>
<path d="M2366 3644 c-521 -94 -906 -554 -906 -1084 0 -679 619 -1201 1286
-1085 733 128 1131 929 791 1590 -220 425 -702 664 -1171 579z"/>
</g>
</svg>
