<?xml version="1.0" standalone="no"?>
<!DOCTYPE svg PUBLIC "-//W3C//DTD SVG 20010904//EN"
 "http://www.w3.org/TR/2001/REC-SVG-20010904/DTD/svg10.dtd">
<svg version="1.0" xmlns="http://www.w3.org/2000/svg"
 width="60.000000pt" height="60.000000pt" viewBox="0 0 60.000000 60.000000"
 preserveAspectRatio="xMidYMid meet">

<g transform="translate(0.000000,60.000000) scale(0.100000,-0.100000)"
fill="#000000" stroke="none">
<path d="M12 568 c-8 -8 -12 -47 -12 -111 0 -111 -8 -104 80 -72 60 22 101 10
177 -54 51 -43 112 -81 128 -81 15 0 2 22 -18 29 -13 5 -54 34 -93 65 -96 78
-141 87 -240 49 -11 -4 -14 10 -14 81 l0 86 280 0 280 0 0 -188 c0 -131 -4
-192 -12 -200 -17 -17 -2 -28 17 -12 12 10 15 45 15 204 0 136 -4 196 -12 204
-17 17 -559 17 -576 0z"/>
<path d="M292 504 c-46 -32 -18 -114 39 -114 30 0 43 9 58 37 16 31 14 41 -14
68 -28 29 -51 31 -83 9z m67 -23 c25 -25 17 -59 -15 -67 -14 -4 -31 -1 -39 6
-20 17 -19 57 3 69 24 14 29 14 51 -8z"/>
<path d="M445 427 c-29 -24 -30 -31 -20 -147 12 -159 25 -244 37 -252 19 -11
36 -10 45 5 9 15 34 249 27 256 -13 13 -22 -30 -29 -124 -6 -95 -16 -137 -30
-124 -7 8 -25 160 -25 218 0 41 1 43 25 37 19 -5 32 0 50 18 32 32 31 50 0 78
-16 14 -23 28 -19 40 8 26 -28 24 -61 -5z m56 -38 c26 -24 31 -34 22 -47 -16
-26 -58 -27 -76 -1 -15 21 -13 42 6 67 12 16 10 17 48 -19z"/>
<path d="M0 242 c0 -40 5 -73 12 -80 15 -15 378 -17 378 -2 0 6 -72 11 -182
12 l-183 3 -3 68 c-4 88 -22 87 -22 -1z"/>
</g>
</svg>
