<?xml version="1.0" encoding="utf-8"?>
<!-- Svg Vector Icons : http://www.onlinewebfonts.com/icon -->
<!DOCTYPE svg PUBLIC "-//W3C//DTD SVG 1.1//EN" "http://www.w3.org/Graphics/SVG/1.1/DTD/svg11.dtd">
<svg version="1.1" xmlns="http://www.w3.org/2000/svg" xmlns:xlink="http://www.w3.org/1999/xlink" x="0px" y="0px" viewBox="0 0 1000 1000" enable-background="new 0 0 1000 1000" xml:space="preserve">
<metadata> Svg Vector Icons : http://www.onlinewebfonts.com/icon </metadata>
<g><g transform="translate(0.000000,511.000000) scale(0.100000,-0.100000)"><path d="M220.7,3965.3C90.6,3909.8,100.2,4216,100.2,106.7c0-3709.4,0-3717,38.3-3780.2c23-36.4,67-70.8,101.4-82.3c72.7-24.9,26.8-38.3,1069.9,292.9c386.6,122.5,765.6,235.4,842.2,250.7c401.9,86.1,1100.6,176.1,1718.8,224c419.2,32.5,1845.1,32.5,2258.5,0c1422.1-111,2610.7-363.7,3399.3-723.5c137.8-63.2,157-67,223.9-45.9c47.9,13.4,86.1,42.1,109.1,82.3c38.3,59.3,38.3,128.2,38.3,3780.2c0,4126.6,9.6,3805-126.3,3862.5c-74.6,30.6-130.2,23-256.5-40.2c-158.9-78.5-599.1-235.4-882.3-312c-763.7-208.6-1531.2-335-2505.4-409.6c-415.3-32.5-1843.2-32.5-2258.5,0c-1368.5,105.3-2616.4,367.5-3347.6,702.4C316.4,4003.6,308.8,4003.6,220.7,3965.3z M846.6,3345.2c846-290.9,1954.2-486.2,3186.8-557c419.2-24.9,1514-24.9,1933.1,0c1232.6,70.8,2340.8,266,3186.8,557c153.1,53.6,292.8,101.4,312,107.2c30.6,9.6,32.5-122.5,32.5-2605c0-1437.4-3.8-2614.5-7.7-2614.5c-3.8,0-388.5,457.4-853.6,1014.4c-465.1,558.9-861.3,1024-880.4,1033.6c-19.1,11.5-72.7,19.1-116.7,19.1c-97.6,0-74.7,23-591.4-601c-204.8-246.9-377.1-449.8-382.8-449.8c-5.7-1.9-292.8,488.1-641.2,1085.2c-346.4,597.2-654.6,1108.2-681.4,1136.9c-70.8,72.7-134,84.2-220.1,40.2c-63.2-30.6-176.1-197.1-918.7-1355.1c-467-725.4-855.6-1322.6-863.2-1324.5c-9.6-1.9-294.8,317.7-637.4,712c-405.8,467-645,727.3-689,748.4c-57.4,28.7-74.6,28.7-143.5,5.7c-76.6-26.8-82.3-36.4-689-1100.5c-336.9-589.5-627.8-1092.9-645-1119.7c-30.6-44-32.5,109.1-32.5,2670c-1.9,2576.2,0,2714.1,32.5,2704.5C553.8,3446.6,693.5,3398.8,846.6,3345.2z"/><path d="M1908.9,2323.1c-379-126.3-606.7-463.2-578-851.7c21.1-283.3,210.5-551.2,478.5-675.6c126.3-59.3,153.1-65.1,319.6-65.1c222,0,335,34.5,497.6,155c223.9,164.6,335,405.8,321.5,694.8c-13.4,304.3-176.1,549.3-451.7,685.2c-130.2,65.1-158.9,72.7-327.3,76.6C2054.4,2346,1956.7,2338.4,1908.9,2323.1z"/></g></g>
</svg>