<?xml version="1.0" standalone="no"?>
<!DOCTYPE svg PUBLIC "-//W3C//DTD SVG 20010904//EN"
 "http://www.w3.org/TR/2001/REC-SVG-20010904/DTD/svg10.dtd">
<svg version="1.0" xmlns="http://www.w3.org/2000/svg"
 width="100.000000pt" height="100.000000pt" viewBox="0 0 100.000000 100.000000"
 preserveAspectRatio="xMidYMid meet">

<g transform="translate(0.000000,100.000000) scale(0.100000,-0.100000)"
fill="#000000" stroke="none">
<path d="M443 942 c-28 -10 -66 -30 -85 -44 -38 -29 -85 -108 -90 -152 -3 -26
1 -30 32 -39 19 -5 79 -7 134 -4 87 5 107 9 170 41 39 19 91 53 116 75 44 38
44 39 27 58 -63 71 -204 101 -304 65z"/>
<path d="M840 873 c-8 -3 -45 -34 -83 -69 -74 -70 -137 -106 -224 -129 -74
-19 -205 -19 -271 0 -51 15 -54 15 -92 -6 -72 -40 -63 -80 21 -98 141 -31 333
4 537 96 8 3 12 -4 12 -21 0 -15 9 -45 20 -66 11 -22 16 -40 11 -40 -6 0 -15
-17 -21 -39 -13 -49 -24 -57 -85 -64 -87 -9 -114 -83 -55 -150 l30 -35 -33
-13 c-49 -21 -154 -17 -200 7 l-39 20 -126 -34 c-70 -19 -137 -42 -151 -50
-28 -19 -51 -69 -51 -112 l0 -30 420 0 c329 0 420 3 420 13 0 26 -49 113 -79
142 -18 16 -62 48 -99 70 -107 65 -113 125 -12 135 57 6 87 31 97 81 3 15 11
30 19 33 19 7 17 30 -6 76 -28 54 -27 106 3 121 47 25 139 102 150 126 9 19 8
26 -4 34 -15 9 -85 11 -109 2z"/>
<path d="M410 529 c-30 -5 -90 -8 -134 -7 -77 2 -78 2 -94 -27 -8 -17 -17 -56
-18 -88 -2 -37 -9 -65 -19 -77 -9 -9 -19 -35 -22 -55 -5 -32 -4 -37 9 -32 9 3
69 20 134 37 65 18 127 35 139 40 24 9 67 84 95 165 l19 55 -27 -1 c-15 -1
-52 -5 -82 -10z"/>
</g>
</svg>
