<?xml version="1.0" standalone="no"?>
<!DOCTYPE svg PUBLIC "-//W3C//DTD SVG 20010904//EN"
 "http://www.w3.org/TR/2001/REC-SVG-20010904/DTD/svg10.dtd">
<svg version="1.0" xmlns="http://www.w3.org/2000/svg"
 width="476.000000pt" height="505.000000pt" viewBox="0 0 476.000000 505.000000"
 preserveAspectRatio="xMidYMid meet">

<g transform="translate(0.000000,505.000000) scale(0.100000,-0.100000)"
fill="#000000" stroke="none">
<path d="M1287 4669 c-304 -30 -446 -135 -508 -376 -18 -70 -38 -314 -39 -465
l0 -48 -172 0 c-153 0 -176 -2 -202 -19 -45 -30 -66 -70 -66 -128 l0 -52 245
-328 c163 -218 256 -334 278 -345 39 -22 98 -23 138 -3 33 18 504 637 521 687
20 58 -6 130 -59 165 -22 15 -57 19 -203 23 l-175 5 3 174 c2 189 19 294 52
341 41 58 178 80 503 80 153 0 216 4 240 14 43 18 85 68 93 112 9 48 -19 118
-59 146 -31 22 -40 23 -267 24 -129 1 -274 -2 -323 -7z"/>
<path d="M2160 4658 c-54 -37 -74 -72 -74 -128 0 -54 18 -87 68 -124 26 -20
41 -21 231 -21 190 0 205 1 231 21 50 37 68 70 68 124 0 56 -20 91 -74 128
-31 21 -42 22 -225 22 -183 0 -194 -1 -225 -22z"/>
<path d="M2910 4662 c-22 -11 -44 -35 -58 -63 -38 -72 -19 -140 51 -193 34
-25 147 -34 201 -16 47 15 92 69 101 120 9 55 -25 125 -75 151 -48 26 -171 26
-220 1z"/>
<path d="M1746 3630 c-16 -5 -40 -19 -53 -32 -56 -52 -53 -2 -53 -1008 0
-1021 -4 -960 60 -1014 l32 -26 653 0 653 0 32 26 c64 54 60 -8 60 1017 l0
934 -22 33 c-13 18 -36 43 -51 54 -28 21 -36 21 -655 23 -345 1 -640 -2 -656
-7z m1084 -1040 l0 -750 -445 0 -445 0 0 750 0 750 445 0 445 0 0 -750z"/>
<path d="M3808 2275 c-24 -14 -455 -571 -507 -656 -38 -62 -19 -148 42 -193
25 -19 47 -22 205 -26 l177 -5 -2 -160 c-4 -267 -27 -356 -100 -388 -68 -30
-134 -37 -408 -44 -312 -7 -332 -11 -366 -86 -24 -55 -24 -83 4 -137 38 -74
60 -80 287 -80 347 0 508 23 633 88 115 59 190 167 222 318 13 61 34 335 35
452 l0 42 171 0 c185 0 204 4 243 58 28 37 34 124 10 159 -77 119 -478 641
-502 656 -36 21 -107 22 -144 2z"/>
<path d="M1640 778 c-54 -37 -75 -73 -75 -128 0 -55 21 -91 75 -127 45 -32
162 -33 221 -2 43 21 78 80 79 128 0 46 -39 110 -81 131 -57 30 -174 28 -219
-2z"/>
<path d="M2180 789 c-103 -42 -128 -175 -45 -248 46 -40 68 -43 277 -39 193 3
204 6 252 71 27 37 27 117 0 154 -49 66 -57 68 -267 70 -114 1 -202 -2 -217
-8z"/>
</g>
</svg>
