<?xml version="1.0" standalone="no"?>
<!DOCTYPE svg PUBLIC "-//W3C//DTD SVG 20010904//EN"
 "http://www.w3.org/TR/2001/REC-SVG-20010904/DTD/svg10.dtd">
<svg version="1.0" xmlns="http://www.w3.org/2000/svg"
 width="651.000000pt" height="694.000000pt" viewBox="0 0 651.000000 694.000000"
 preserveAspectRatio="xMidYMid meet">

<g transform="translate(0.000000,694.000000) scale(0.100000,-0.100000)"
fill="#000000" stroke="none">
<path d="M2190 6526 c-119 -60 -156 -214 -77 -318 49 -63 95 -82 206 -87 122
-4 173 10 227 65 107 107 74 286 -64 345 -67 29 -231 27 -292 -5z"/>
<path d="M2945 6528 c-22 -11 -49 -28 -59 -37 -29 -25 -66 -112 -66 -156 0
-55 39 -135 82 -167 58 -44 101 -50 378 -46 249 3 256 4 297 27 81 47 128 151
104 233 -20 67 -58 114 -114 143 -51 25 -52 25 -316 25 -249 -1 -269 -2 -306
-22z"/>
<path d="M4025 6531 c-144 -66 -174 -244 -60 -350 24 -22 60 -44 81 -50 22 -6
134 -11 259 -11 440 -1 679 -26 759 -81 81 -55 105 -166 113 -516 l6 -263
-235 0 c-167 0 -244 -4 -264 -13 -112 -48 -167 -162 -130 -266 19 -51 682
-940 725 -970 79 -56 192 -47 266 23 50 47 663 862 694 924 52 102 4 233 -104
283 -35 16 -68 19 -276 19 l-237 0 -6 178 c-19 547 -64 722 -226 883 -178 177
-417 229 -1045 229 -250 0 -284 -2 -320 -19z"/>
<path d="M2365 5045 c-5 -2 -22 -6 -38 -9 -38 -9 -106 -73 -128 -121 -18 -38
-19 -105 -19 -1375 0 -1277 1 -1337 19 -1376 22 -48 82 -101 131 -114 53 -15
1807 -13 1851 2 54 18 96 56 124 111 l25 51 0 1322 c0 1447 3 1373 -58 1437
-15 16 -45 39 -67 50 l-40 22 -895 2 c-492 1 -899 0 -905 -2z m1533 -1502 l2
-1073 -645 0 -645 0 0 1068 c0 588 3 1072 7 1075 3 4 293 6 642 5 l636 -3 3
-1072z"/>
<path d="M1015 3093 c-16 -8 -38 -23 -49 -32 -28 -24 -676 -890 -699 -934 -15
-29 -18 -52 -15 -102 5 -79 41 -137 108 -175 44 -24 51 -25 286 -28 l241 -4 8
-237 c14 -469 67 -664 225 -821 103 -104 226 -158 440 -196 74 -12 184 -17
495 -21 l400 -4 45 24 c25 14 59 43 75 67 27 38 30 49 30 118 0 89 -19 127
-89 178 -40 28 -44 29 -206 36 -91 3 -244 7 -340 7 -202 1 -396 22 -475 52
-127 48 -158 154 -172 591 l-6 206 244 4 c239 3 245 4 289 28 27 15 58 45 78
74 27 41 32 57 32 110 0 40 -6 74 -18 96 -19 37 -636 865 -681 913 -41 46 -93
67 -158 67 -33 -1 -71 -8 -88 -17z"/>
<path d="M2939 940 c-126 -66 -157 -226 -63 -330 62 -69 69 -70 379 -70 295 0
306 2 363 54 87 78 87 234 0 312 -57 53 -67 54 -365 54 -253 -1 -281 -3 -314
-20z"/>
<path d="M4007 939 c-48 -25 -92 -86 -106 -147 -22 -89 28 -191 114 -232 40
-19 58 -21 168 -18 117 3 126 4 160 30 132 102 123 285 -18 365 -35 20 -54 23
-160 22 -100 0 -126 -3 -158 -20z"/>
</g>
</svg>
