<?xml version="1.0" standalone="no"?>
<!DOCTYPE svg PUBLIC "-//W3C//DTD SVG 20010904//EN"
 "http://www.w3.org/TR/2001/REC-SVG-20010904/DTD/svg10.dtd">
<svg version="1.0" xmlns="http://www.w3.org/2000/svg"
 width="64.000000pt" height="64.000000pt" viewBox="0 0 64.000000 64.000000"
 preserveAspectRatio="xMidYMid meet">

<g transform="translate(0.000000,64.000000) scale(0.100000,-0.100000)"
fill="#000000" stroke="none">
<path d="M40 565 c0 -33 4 -45 15 -45 12 0 15 -15 15 -75 0 -60 -3 -75 -15
-75 -11 0 -15 -12 -15 -50 0 -38 4 -50 15 -50 12 0 15 -15 15 -75 0 -61 -3
-75 -16 -75 -12 0 -14 -10 -12 -47 3 -46 4 -48 35 -51 24 -2 35 2 45 17 11 18
23 21 84 21 63 0 72 -2 77 -20 7 -28 67 -28 74 0 5 18 14 20 77 20 61 0 73 -3
84 -21 10 -15 21 -19 45 -17 31 3 32 5 35 51 2 37 0 47 -12 47 -13 0 -16 14
-16 75 0 60 3 75 15 75 11 0 15 12 15 50 0 38 -4 50 -15 50 -12 0 -15 15 -15
75 0 60 3 75 15 75 11 0 15 12 15 45 l0 45 -40 0 c-27 0 -43 -5 -46 -15 -5
-11 -24 -15 -80 -15 -59 0 -74 3 -74 15 0 11 -11 15 -40 15 -29 0 -40 -4 -40
-15 0 -12 -15 -15 -74 -15 -56 0 -75 4 -80 15 -3 10 -19 15 -46 15 l-40 0 0
-45z m60 0 c0 -18 -5 -25 -20 -25 -15 0 -20 7 -20 25 0 18 5 25 20 25 15 0 20
-7 20 -25z m240 0 c0 -18 -5 -25 -20 -25 -15 0 -20 7 -20 25 0 18 5 25 20 25
15 0 20 -7 20 -25z m240 0 c0 -18 -5 -25 -20 -25 -15 0 -20 7 -20 25 0 18 5
25 20 25 15 0 20 -7 20 -25z m-300 -25 c0 -17 7 -20 40 -20 33 0 40 3 40 20 0
18 7 20 74 20 66 0 75 -2 81 -20 3 -11 13 -20 21 -20 11 0 14 -17 14 -75 0
-60 -3 -75 -15 -75 -18 0 -29 -41 -21 -75 4 -14 13 -25 21 -25 12 0 15 -15 15
-75 0 -58 -3 -75 -14 -75 -8 0 -18 -9 -21 -20 -6 -18 -15 -20 -81 -20 -67 0
-74 2 -74 20 0 17 -7 20 -40 20 -33 0 -40 -3 -40 -20 0 -18 -7 -20 -74 -20
-66 0 -75 2 -81 20 -3 11 -13 20 -21 20 -11 0 -14 17 -14 75 0 60 3 75 15 75
8 0 17 11 21 25 8 34 -3 75 -21 75 -12 0 -15 15 -15 75 0 58 3 75 14 75 8 0
18 9 21 20 6 18 15 20 81 20 67 0 74 -2 74 -20z m-180 -220 c0 -23 -4 -30 -20
-30 -16 0 -20 7 -20 30 0 23 4 30 20 30 16 0 20 -7 20 -30z m480 0 c0 -23 -4
-30 -20 -30 -16 0 -20 7 -20 30 0 23 4 30 20 30 16 0 20 -7 20 -30z m-480
-250 c0 -23 -4 -30 -20 -30 -16 0 -20 7 -20 30 0 23 4 30 20 30 16 0 20 -7 20
-30z m240 0 c0 -23 -4 -30 -20 -30 -16 0 -20 7 -20 30 0 23 4 30 20 30 16 0
20 -7 20 -30z m240 0 c0 -23 -4 -30 -20 -30 -16 0 -20 7 -20 30 0 23 4 30 20
30 16 0 20 -7 20 -30z"/>
</g>
</svg>
