<?xml version="1.0" standalone="no"?>
<!DOCTYPE svg PUBLIC "-//W3C//DTD SVG 20010904//EN"
 "http://www.w3.org/TR/2001/REC-SVG-20010904/DTD/svg10.dtd">
<svg version="1.0" xmlns="http://www.w3.org/2000/svg"
 width="597.000000pt" height="600.000000pt" viewBox="0 0 597.000000 600.000000"
 preserveAspectRatio="xMidYMid meet">

<g transform="translate(0.000000,600.000000) scale(0.100000,-0.100000)"
fill="#000000" stroke="none">
<path d="M5964 5695 c0 -66 1 -92 3 -57 2 34 2 88 0 120 -2 31 -3 3 -3 -63z"/>
<path d="M4487 5093 c-4 -3 -7 -156 -7 -339 l0 -334 23 -5 c12 -3 164 -4 337
-3 l315 3 0 340 0 340 -331 3 c-182 1 -333 -1 -337 -5z m473 -338 l0 -146
-137 3 -138 3 -3 129 c-1 72 0 136 2 143 4 10 39 13 141 13 l135 0 0 -145z"/>
<path d="M1925 4890 c-64 -19 -112 -94 -100 -157 8 -46 59 -101 104 -113 66
-18 122 10 166 84 9 15 62 16 635 14 l625 -3 -70 -24 c-184 -62 -467 -198
-640 -306 -290 -182 -520 -375 -749 -630 -267 -297 -491 -666 -627 -1032 -29
-78 -56 -140 -60 -137 -10 6 -11 1315 -1 1329 4 6 19 16 35 22 62 28 88 134
48 199 -36 60 -127 81 -188 44 -46 -28 -67 -65 -67 -120 0 -56 21 -93 70 -122
l34 -20 0 -806 c0 -455 -5 -824 -10 -847 -38 -168 -70 -420 -73 -580 l-2 -110
120 0 120 0 7 125 c33 560 208 1087 513 1545 149 223 284 381 485 568 218 202
454 364 725 497 375 184 733 281 1153 312 l162 12 0 123 0 123 -97 -5 c-176
-11 -372 -35 -520 -65 l-146 -30 -733 0 -733 0 -28 43 c-40 59 -99 84 -158 67z"/>
<path d="M2470 3536 c0 -4 168 -375 420 -926 89 -195 193 -422 230 -505 37
-82 103 -229 148 -325 44 -96 139 -303 210 -460 71 -157 146 -322 167 -367 27
-60 41 -80 52 -76 8 3 93 162 188 354 95 191 176 353 180 360 5 7 121 -102
321 -302 l314 -314 160 160 c88 88 160 165 160 171 0 6 -137 149 -305 318
-168 169 -303 311 -301 315 3 4 172 90 376 192 l372 184 -104 48 c-56 27 -170
79 -253 117 -168 76 -745 339 -1670 763 -198 90 -387 177 -420 192 -33 15 -98
45 -144 66 -78 37 -101 44 -101 35z"/>
<path d="M842 1432 c-9 -7 -12 -82 -10 -343 l3 -334 340 0 340 0 0 340 0 340
-330 2 c-181 2 -336 -1 -343 -5z m354 -202 l114 0 0 -140 0 -141 -137 3 -138
3 -3 134 c-3 137 3 158 36 146 8 -3 65 -5 128 -5z"/>
</g>
</svg>
