<?xml version="1.0" standalone="no"?>
<!DOCTYPE svg PUBLIC "-//W3C//DTD SVG 20010904//EN"
 "http://www.w3.org/TR/2001/REC-SVG-20010904/DTD/svg10.dtd">
<svg version="1.0" xmlns="http://www.w3.org/2000/svg"
 width="100.000000pt" height="100.000000pt" viewBox="0 0 100.000000 100.000000"
 preserveAspectRatio="xMidYMid meet">

<g transform="translate(0.000000,100.000000) scale(0.100000,-0.100000)"
fill="#000000" stroke="none">
<path d="M445 835 c-16 -15 -25 -36 -25 -55 0 -19 9 -40 25 -55 49 -50 135
-15 135 55 0 41 -39 80 -80 80 -19 0 -40 -9 -55 -25z"/>
<path d="M45 790 c-15 -25 13 -30 171 -30 157 0 164 1 164 20 0 19 -7 20 -164
20 -99 0 -167 -4 -171 -10z"/>
<path d="M620 780 c0 -20 4 -20 168 -18 141 3 167 5 167 18 0 13 -26 15 -167
18 -164 2 -168 2 -168 -18z"/>
<path d="M725 555 c-16 -15 -25 -36 -25 -55 0 -19 9 -40 25 -55 49 -50 135
-15 135 55 0 41 -39 80 -80 80 -19 0 -40 -9 -55 -25z"/>
<path d="M45 510 c-17 -27 16 -30 311 -30 297 0 304 0 304 20 0 20 -7 20 -304
20 -193 0 -307 -4 -311 -10z"/>
<path d="M900 500 c0 -17 5 -21 28 -18 16 2 27 9 27 18 0 9 -11 16 -27 18 -23
3 -28 -1 -28 -18z"/>
<path d="M225 275 c-50 -49 -15 -135 55 -135 41 0 80 39 80 80 0 41 -39 80
-80 80 -19 0 -40 -9 -55 -25z"/>
<path d="M45 230 c-12 -20 7 -30 61 -30 47 0 54 2 54 20 0 18 -7 20 -54 20
-30 0 -58 -4 -61 -10z"/>
<path d="M400 220 c0 -20 4 -20 278 -18 238 3 277 5 277 18 0 13 -39 15 -277
18 -274 2 -278 2 -278 -18z"/>
</g>
</svg>
