<?xml version="1.0" standalone="no"?>
<!DOCTYPE svg PUBLIC "-//W3C//DTD SVG 20010904//EN"
 "http://www.w3.org/TR/2001/REC-SVG-20010904/DTD/svg10.dtd">
<svg version="1.0" xmlns="http://www.w3.org/2000/svg"
 width="512.000000pt" height="512.000000pt" viewBox="0 0 512.000000 512.000000"
 preserveAspectRatio="xMidYMid meet">

<g transform="translate(0.000000,512.000000) scale(0.100000,-0.100000)"
fill="#000000" stroke="none">
<path d="M75 5105 c-59 -29 -60 -32 -63 -360 -4 -335 0 -364 51 -395 26 -16
51 -20 130 -20 l97 0 -2 -757 -3 -758 -107 -5 c-119 -6 -140 -16 -159 -79 -7
-23 -9 -144 -7 -336 3 -329 4 -331 64 -360 21 -10 63 -15 123 -15 l91 0 0
-975 0 -975 29 -32 29 -33 2332 -3 c2060 -2 2335 0 2363 13 67 32 62 -174 65
2380 2 1624 0 2331 -8 2357 -6 20 -22 46 -37 57 -26 21 -32 21 -998 21 l-973
0 -4 108 c-7 187 0 184 -408 180 l-310 -3 -27 -28 c-27 -26 -28 -33 -33 -140
l-5 -112 -750 0 -750 0 -5 105 c-9 183 -2 180 -397 180 -243 0 -304 -3 -328
-15z m505 -380 l0 -175 -170 0 -170 0 0 175 0 175 170 0 170 0 0 -175z m2280
0 l0 -175 -165 0 -165 0 0 175 0 175 165 0 165 0 0 -175z m-550 -222 c1 -155
19 -173 174 -173 l96 0 0 -760 0 -760 -104 0 c-103 0 -105 0 -135 -31 -31 -30
-31 -31 -31 -140 l0 -109 -755 0 -755 0 0 106 0 106 -34 34 -34 34 -111 0
-111 0 0 760 0 760 111 0 111 0 34 34 34 34 0 106 0 106 755 0 755 0 0 -107z
m2580 -2088 l0 -2195 -2190 0 -2190 0 0 899 0 899 108 4 c162 6 182 27 182
187 l0 101 755 0 755 0 0 -109 c0 -106 1 -110 28 -139 16 -17 44 -33 63 -37
19 -3 165 -5 324 -3 307 3 314 4 346 52 11 16 15 83 17 306 4 320 1 359 -33
398 -22 26 -28 27 -137 32 l-113 5 -3 758 -2 757 102 0 c163 0 188 26 188 198
l0 82 900 0 900 0 0 -2195z m-4310 5 l0 -170 -170 0 -170 0 0 170 0 170 170 0
170 0 0 -170z m2280 0 l0 -170 -165 0 -165 0 0 170 0 170 165 0 165 0 0 -170z"/>
<path d="M3224 1931 c-37 -22 -58 -75 -48 -117 5 -20 93 -116 272 -296 l266
-268 -192 -193 c-134 -135 -192 -201 -194 -218 -4 -71 17 -112 65 -128 18 -6
267 -45 554 -86 490 -71 524 -75 557 -61 23 10 42 27 52 50 16 33 14 51 -60
567 -44 302 -84 546 -93 562 -18 36 -74 61 -117 51 -23 -5 -82 -57 -224 -197
l-192 -191 -263 261 c-144 143 -272 266 -284 272 -32 16 -64 13 -99 -8z m1057
-823 c24 -164 40 -300 36 -304 -5 -5 -514 63 -611 82 -28 6 -19 16 245 280
219 219 275 271 281 257 4 -10 26 -152 49 -315z"/>
</g>
</svg>
