<?xml version="1.0" standalone="no"?>
<!DOCTYPE svg PUBLIC "-//W3C//DTD SVG 20010904//EN"
 "http://www.w3.org/TR/2001/REC-SVG-20010904/DTD/svg10.dtd">
<svg version="1.0" xmlns="http://www.w3.org/2000/svg"
 width="96.000000pt" height="96.000000pt" viewBox="0 0 96.000000 96.000000"
 preserveAspectRatio="xMidYMid meet">

<g transform="translate(0.000000,96.000000) scale(0.100000,-0.100000)"
fill="#000000" stroke="none">
<path d="M375 860 c-14 -16 -33 -20 -108 -22 -73 -2 -92 -6 -101 -20 -8 -13
-8 -23 0 -35 10 -17 36 -18 314 -18 278 0 304 1 314 18 8 12 8 22 0 35 -9 14
-28 18 -101 20 -75 2 -94 6 -108 22 -15 17 -31 20 -105 20 -74 0 -90 -3 -105
-20z"/>
<path d="M200 405 l0 -276 25 -24 24 -25 231 0 231 0 24 25 25 24 0 276 0 275
-280 0 -280 0 0 -275z m189 181 c8 -9 11 -74 9 -211 -3 -176 -5 -199 -20 -209
-13 -8 -23 -8 -35 0 -16 10 -18 33 -21 209 -2 137 1 202 9 211 15 18 43 18 58
0z m240 0 c8 -9 11 -74 9 -211 -3 -176 -5 -199 -20 -209 -13 -8 -23 -8 -35 0
-16 10 -18 33 -21 209 -2 137 1 202 9 211 15 18 43 18 58 0z"/>
</g>
</svg>
