<?xml version="1.0" standalone="no"?>
<!DOCTYPE svg PUBLIC "-//W3C//DTD SVG 20010904//EN"
 "http://www.w3.org/TR/2001/REC-SVG-20010904/DTD/svg10.dtd">
<svg version="1.0" xmlns="http://www.w3.org/2000/svg"
 width="512.000000pt" height="512.000000pt" viewBox="0 0 512.000000 512.000000"
 preserveAspectRatio="xMidYMid meet">

<g transform="translate(0.000000,512.000000) scale(0.100000,-0.100000)"
fill="#000000" stroke="none">
<path d="M2470 4945 l0 -175 90 0 90 0 0 175 0 175 -90 0 -90 0 0 -175z"/>
<path d="M1062 4497 l-62 -62 125 -125 125 -125 62 63 63 62 -125 125 -125
125 -63 -63z"/>
<path d="M3870 4435 l-125 -125 63 -62 62 -63 125 125 125 125 -63 63 -62 62
-125 -125z"/>
<path d="M2445 4409 c-562 -42 -1053 -432 -1228 -975 -53 -165 -71 -298 -64
-484 9 -230 50 -391 154 -593 90 -177 215 -331 362 -448 47 -38 81 -73 88 -92
7 -18 12 -76 12 -129 l1 -98 790 0 790 0 1 98 c0 53 5 111 12 129 7 19 41 54
88 92 242 192 416 478 490 800 30 129 36 365 14 506 -115 735 -766 1249 -1510
1194z m-675 -1220 c0 -239 1 -253 21 -286 12 -19 23 -33 24 -31 2 2 33 120 69
263 71 286 81 305 150 305 61 0 72 -24 143 -307 35 -141 66 -259 68 -261 2 -2
15 14 29 35 l26 38 0 247 0 248 85 0 85 0 0 -277 0 -278 -100 -149 c-54 -83
-109 -156 -122 -163 -36 -20 -67 -15 -97 15 -23 22 -35 57 -72 205 -24 97 -46
177 -49 177 -3 0 -25 -80 -49 -177 -37 -155 -47 -182 -72 -205 -63 -60 -96
-37 -219 148 l-100 149 0 278 0 277 90 0 90 0 0 -251z m1600 230 c55 -25 105
-71 133 -124 16 -30 22 -58 22 -115 0 -64 -4 -82 -28 -125 l-28 -49 27 -54
c56 -111 39 -228 -45 -312 -76 -76 -96 -80 -444 -80 l-299 0 -29 29 -29 29 0
387 0 386 25 24 24 25 313 0 c293 0 316 -2 358 -21z"/>
<path d="M2827 3264 c-4 -4 -7 -45 -7 -91 l0 -83 240 0 241 0 24 25 c35 34 34
93 -1 126 -25 24 -28 24 -258 27 -127 2 -235 0 -239 -4z"/>
<path d="M2820 2825 l0 -85 240 0 241 0 24 25 c17 16 25 35 25 60 0 25 -8 44
-25 60 l-24 25 -241 0 -240 0 0 -85z"/>
<path d="M440 3000 l0 -90 175 0 175 0 0 90 0 90 -175 0 -175 0 0 -90z"/>
<path d="M4330 3000 l0 -90 175 0 175 0 0 90 0 90 -175 0 -175 0 0 -90z"/>
<path d="M1526 1379 c-14 -17 -26 -39 -26 -50 0 -28 26 -75 45 -83 22 -8 2008
-8 2030 0 19 8 45 55 45 83 0 11 -12 33 -26 50 l-26 31 -1008 0 -1008 0 -26
-31z"/>
<path d="M1770 885 l0 -175 790 0 790 0 0 175 0 175 -790 0 -790 0 0 -175z"/>
<path d="M1835 473 c61 -139 192 -285 322 -361 253 -147 568 -146 815 4 126
77 254 223 313 357 l25 57 -750 0 -750 0 25 -57z"/>
</g>
</svg>
